<svg width="92" height="30" viewBox="0 0 92 30" fill="none" xmlns="http://www.w3.org/2000/svg">
<g clip-path="url(#clip0_40_52)">
<path d="M59.9096 0.0461426C53.3841 0.0461426 47.5522 3.44364 47.5522 9.71936C47.5522 16.9172 57.8948 17.4143 57.8948 21.0308C57.8948 22.5535 56.1579 23.9164 53.1899 23.9164C48.9791 23.9164 45.8318 22.0121 45.8318 22.0121L44.4849 28.346C44.4849 28.346 48.1106 29.9547 52.9241 29.9547C60.0587 29.9547 65.6734 26.3909 65.6734 20.007C65.6734 12.4008 55.2875 11.9184 55.2875 8.56253C55.2875 7.36966 56.7135 6.06314 59.6723 6.06314C63.0109 6.06314 65.7341 7.4482 65.7341 7.4482L67.0525 1.33141C67.0525 1.33141 64.0883 0.0461426 59.9087 0.0461426H59.9096ZM0.204383 0.508136L0.0461426 1.4312C0.0461426 1.4312 2.79142 1.9357 5.26438 2.94284C8.4485 4.0969 8.67482 4.76956 9.21118 6.85592L15.0541 29.4779H22.887L34.9537 0.508136H27.1392L19.3855 20.2048L16.2216 3.50832C15.9318 1.59752 14.4616 0.507212 12.663 0.507212H0.205303L0.204383 0.508136ZM38.0964 0.508136L31.9665 29.4779H39.4185L45.5263 0.508136H38.0964ZM79.6583 0.508136C77.8616 0.508136 76.9094 1.47463 76.2111 3.16275L65.2935 29.4779H73.1079L74.6195 25.0917H84.1397L85.0587 29.4779H91.9541L85.9392 0.508136H79.6583ZM80.6749 8.33523L82.9915 19.2059H76.7861L80.6759 8.33523H80.6749Z" fill="#1434CB"/>
</g>
<defs>
<clipPath id="clip0_40_52">
<rect width="92" height="30" fill="white"/>
</clipPath>
</defs>
</svg>
