<svg width="100" height="30" viewBox="0 0 100 30" fill="none" xmlns="http://www.w3.org/2000/svg">
<path d="M7.75 3.25H16C16.75 3.25 19 3 20 6.5C20.75 8.75 21.75 12.25 23.25 17.5H23.75C25.25 12 26.5 8.25 27 6.5C28 3 30.5 3.25 31.5 3.25H39.25V27.25H31.25V13H30.75L26.5 27.25H20.5L16.25 13H15.5V27.25H7.75M42.5 3.25H50.5V17.5H51.25L56.5 5.75C57.5 3.5 59.75 3.25 59.75 3.25H67.25V27.25H59.25V13H58.75L53.5 24.75C52.5 27 50 27.25 50 27.25H42.5M78 20V27.25H70.5V14.75H95C94 17.75 90.5 20 86.5 20" fill="#0F754E"/>
<path d="M95.5 13.25C96.5 8.75 93.5 3.25 87 3.25H70C70.5 8.5 75 13.25 79.75 13.25" fill="url(#paint0_linear_40_54)"/>
<defs>
<linearGradient id="paint0_linear_40_54" x1="92.5" y1="1.19209e-07" x2="72.5" y2="1.19209e-07" gradientUnits="userSpaceOnUse">
<stop stop-color="#1F5CD7"/>
<stop offset="1" stop-color="#02AEFF"/>
</linearGradient>
</defs>
</svg>
