<svg width="48" height="30" viewBox="0 0 48 30" fill="none" xmlns="http://www.w3.org/2000/svg">
<g clip-path="url(#clip0_40_48)">
<path d="M14.784 0C10.8545 0.012861 7.09061 1.60221 4.31877 4.4191C1.54692 7.23598 -0.00633903 11.0502 1.94453e-05 15.0242C0.00637792 18.9982 1.57183 22.8073 4.35268 25.6151C7.13353 28.4229 10.9025 29.9999 14.832 29.9999C18.7615 29.9999 22.5305 28.4229 25.3113 25.6151C28.0922 22.8073 29.6576 18.9982 29.664 15.0242C29.6703 11.0502 28.1171 7.23598 25.3452 4.4191C22.5734 1.60221 18.8095 0.012861 14.88 0L14.784 0Z" fill="#EB001B"/>
<path d="M33.1201 0C29.1905 0.012861 25.4267 1.60221 22.6548 4.4191C19.883 7.23598 18.3297 11.0502 18.3361 15.0242C18.3424 18.9982 19.9079 22.8073 22.6887 25.6151C25.4696 28.4229 29.2385 29.9999 33.1681 29.9999C37.0976 29.9999 40.8665 28.4229 43.6474 25.6151C46.4282 22.8073 47.9937 18.9982 48 15.0242C48.0064 11.0502 46.4531 7.23598 43.6813 4.4191C40.9094 1.60221 37.1456 0.012861 33.2161 0L33.1201 0Z" fill="#F79E1B"/>
<path d="M24 3.20386C22.2332 4.60737 20.8047 6.39847 19.8225 8.44193C18.8402 10.4854 18.3298 12.7278 18.3298 15C18.3298 17.2721 18.8402 19.5145 19.8225 21.558C20.8047 23.6015 22.2332 25.3926 24 26.7961C25.7668 25.3926 27.1953 23.6015 28.1775 21.558C29.1598 19.5145 29.6702 17.2721 29.6702 15C29.6702 12.7278 29.1598 10.4854 28.1775 8.44193C27.1953 6.39847 25.7668 4.60737 24 3.20386Z" fill="#FF5F00"/>
</g>
<defs>
<clipPath id="clip0_40_48">
<rect width="48" height="30" fill="white"/>
</clipPath>
</defs>
</svg>
