<svg width="130" height="71" viewBox="0 0 130 71" fill="none" xmlns="http://www.w3.org/2000/svg">
<g clip-path="url(#clip0_56_346)">
<path d="M10.5922 48.5549C10.7234 47.8253 10.5944 47.0722 10.2284 46.4302C9.64499 45.6901 8.87993 45.1188 8.01007 44.7736C7.01939 44.3055 6.07711 43.7385 5.19719 43.081C4.24219 42.4227 3.47627 41.5192 2.97746 40.4627C2.47866 39.4063 2.26481 38.2345 2.3577 37.0668C2.44336 35.7243 2.89157 34.4317 3.65322 33.3305C4.4318 32.2255 5.48501 31.3495 6.70567 30.7916C7.97782 30.1708 9.37609 29.8623 10.7874 29.8913C11.722 29.8684 12.65 30.056 13.5046 30.4405C14.3592 30.825 15.1192 31.3969 15.7299 32.1151C16.9562 33.669 17.5471 35.6416 17.3804 37.625H12.5444C12.6686 35.2842 11.9321 34.0838 10.3349 34.0237C9.94138 34.0148 9.55021 34.0876 9.18548 34.2378C8.82076 34.388 8.4902 34.6123 8.21415 34.8971C7.61586 35.477 7.23608 36.2509 7.14047 37.0848C6.97483 38.4173 7.8888 39.5577 9.88236 40.5061C11.5474 41.2078 13.0185 42.3111 14.1682 43.7202C15.1587 45.1059 15.599 46.819 15.4016 48.5189C15.3544 49.5146 15.1054 50.4898 14.6703 51.3835C14.2352 52.2773 13.6233 53.0706 12.8727 53.7138C11.2694 55.035 9.23832 55.7027 7.17597 55.5864C6.15693 55.6155 5.14391 55.4187 4.20753 55.0097C3.27116 54.6008 2.43396 53.9895 1.75431 53.2186C1.07832 52.412 0.568327 51.4763 0.254389 50.4666C-0.0595483 49.4569 -0.171076 48.3936 -0.0736181 47.3395H4.78901C4.61853 48.4277 4.81885 49.5425 5.35691 50.4996C5.62097 50.829 5.9602 51.088 6.34521 51.2543C6.73022 51.4206 7.14939 51.4892 7.5664 51.454C7.95019 51.4696 8.33299 51.404 8.69046 51.2614C9.04793 51.1188 9.37224 50.9023 9.64278 50.6257C10.1616 50.0509 10.4931 49.3278 10.5922 48.5549Z" fill="white"/>
<path d="M26.8484 53.5427C26.3823 54.179 25.7762 54.696 25.0783 55.0524C24.3804 55.4088 23.61 55.5948 22.8287 55.5955C22.2907 55.6147 21.755 55.5152 21.2586 55.3038C20.7622 55.0924 20.317 54.7741 19.9537 54.371C19.1846 53.4459 18.744 52.2854 18.7026 51.0759C18.627 50.2824 18.627 49.4834 18.7026 48.69L20.6813 36.6887H25.3399L23.37 48.753L23.3168 49.5993C23.2576 50.0872 23.3507 50.5815 23.583 51.0128C23.6775 51.1809 23.8145 51.3204 23.9798 51.4169C24.1451 51.5134 24.3328 51.5635 24.5235 51.562C25.0311 51.5493 25.5278 51.4105 25.9703 51.1578C26.4127 50.9051 26.7873 50.5462 27.0613 50.1125L29.3595 36.6887H34.0713L30.8946 55.2353H26.5555L26.8484 53.5427Z" fill="white"/>
<path d="M42.9181 55.5773C42.2513 55.5755 41.5956 55.404 41.0112 55.0784C40.4267 54.7527 39.9321 54.2835 39.5728 53.7137L37.9578 62.3658H33.2904L37.6827 36.6886H41.942L41.6847 38.4082C42.1097 37.7807 42.6758 37.2648 43.3361 36.9032C43.9965 36.5416 44.7322 36.3446 45.4825 36.3285C46.1762 36.2975 46.8663 36.4466 47.4873 36.7617C48.1084 37.0768 48.64 37.5474 49.0318 38.1291C49.8966 39.7181 50.2677 41.5352 50.0967 43.342C50.0572 45.6409 49.714 47.9241 49.0762 50.1304C48.6567 51.7152 47.8047 53.1476 46.6183 54.2629C45.5997 55.1716 44.2728 55.6429 42.9181 55.5773ZM45.4825 43.342C45.5423 42.5761 45.4078 41.8074 45.092 41.1092C44.9503 40.8937 44.7572 40.7181 44.5308 40.5985C44.3043 40.4789 44.0518 40.4192 43.7965 40.4249C43.3461 40.4363 42.9047 40.5556 42.5083 40.7731C42.112 40.9906 41.772 41.3001 41.5161 41.6764L39.9987 50.4365C40.1768 50.7978 40.4543 51.099 40.7976 51.3035C41.141 51.5081 41.5354 51.6072 41.9331 51.5889C43.7078 51.6789 44.7371 50.3105 45.1453 47.4835L45.4825 43.9812V43.342Z" fill="white"/>
<path d="M58.8991 55.5775C57.5667 55.6091 56.2568 55.2257 55.1456 54.4791C54.1013 53.7386 53.3177 52.6786 52.9095 51.454C52.4413 50.0286 52.3017 48.5132 52.5013 47.0244L52.6522 45.755C53.0249 42.6849 53.9388 40.353 55.4118 38.6965C56.1156 37.9039 56.9854 37.2814 57.9574 36.8748C58.9294 36.4681 59.9789 36.2876 61.0287 36.3466C61.7632 36.318 62.4956 36.444 63.1798 36.7167C63.864 36.9894 64.4851 37.4029 65.004 37.9312C66.024 39.108 66.6132 40.6056 66.6722 42.1717C66.76 43.2336 66.7362 44.302 66.6012 45.3588L66.2818 47.5916H57.1155C57.054 48.0631 57.0362 48.5393 57.0623 49.0141C57.1421 50.6617 57.9496 51.499 59.4404 51.535C60.9588 51.541 62.4221 50.958 63.531 49.9055L65.1016 52.8585C64.4307 53.7532 63.5361 54.4495 62.5106 54.8752C61.3722 55.3758 60.1391 55.6156 58.8991 55.5775ZM60.5673 40.335C59.2244 40.281 58.2898 41.1513 57.7633 42.946L57.4261 44.1974H62.0669C62.1671 43.6655 62.2294 43.1269 62.2532 42.5858C62.342 41.1543 61.7474 40.3981 60.5673 40.335Z" fill="white"/>
<path d="M78.6247 41.3523L77.1428 41.1813C76.5242 41.1709 75.9147 41.3333 75.381 41.6509C74.8473 41.9685 74.41 42.429 74.117 42.9819L72.0051 55.2353H67.3199L70.4966 36.6887H74.8712L74.4985 38.7234C74.9128 37.9966 75.4647 37.3602 76.1224 36.8507C76.6263 36.4992 77.2234 36.3109 77.8349 36.3105C78.3237 36.3302 78.8074 36.418 79.2724 36.5716L78.6247 41.3523Z" fill="white"/>
<path d="M97.6493 55.2353H92.8133L94.6412 44.5575H87.5425L85.7146 55.2353H80.8875L85.1467 30.3054H89.9916L88.2701 40.398H95.3689L97.1436 30.3054H101.98L97.6493 55.2353Z" fill="#FF8E14"/>
<path d="M106.345 55.2353H101.5L105.768 30.3054H110.622L106.345 55.2353Z" fill="#FF8E14"/>
<path d="M129.194 34.4738H123.293L119.744 55.2352H114.873L118.422 34.4738H112.61L113.337 30.2783H129.913L129.194 34.4738Z" fill="#FF8E14"/>
</g>
<rect x="56.7645" width="30" height="30" rx="8" transform="rotate(15 56.7645 0)" fill="#F0386B"/>
<path d="M59.7176 12.7272L60.7646 13.0077L60.97 18.8255L64.0567 13.8898L65.1038 14.1704L61.0307 20.4291L60.1157 20.1839L59.7176 12.7272ZM65.7099 17.8511L67.903 18.4388C68.1105 18.4944 68.306 18.4945 68.4893 18.4392C68.6726 18.3838 68.8307 18.2779 68.9637 18.1214C69.0997 17.9658 69.1989 17.7716 69.2613 17.5389C69.3245 17.3031 69.3361 17.0838 69.296 16.881C69.2592 16.679 69.1752 16.5082 69.0441 16.3686C68.9138 16.2259 68.7449 16.1267 68.5374 16.0711L66.3443 15.4835L66.5894 14.5685L68.7496 15.1473C69.1583 15.2568 69.4948 15.4413 69.7589 15.7008C70.0238 15.9571 70.1986 16.2669 70.2833 16.6299C70.3712 16.9938 70.3591 17.3849 70.247 17.8031C70.135 18.2213 69.9499 18.566 69.6919 18.8372C69.4378 19.1061 69.132 19.2854 68.7744 19.3749C68.4168 19.4644 68.0336 19.4544 67.6248 19.3449L65.4647 18.7661L65.7099 17.8511ZM66.0942 14.4358L67.0564 14.6936L65.2189 21.5513L64.2567 21.2935L66.0942 14.4358ZM72.1124 16.0483L72.9849 16.2821L74.9178 22.4819L74.7718 22.5742L76.2251 17.1503L77.1778 17.4056L75.3416 24.2586L74.4596 24.0223L72.5147 17.9052L72.6607 17.8129L71.2289 23.1566L70.2761 22.9013L72.1124 16.0483Z" fill="white"/>
<defs>
<clipPath id="clip0_56_346">
<rect width="130" height="56" fill="white" transform="translate(0 15)"/>
</clipPath>
</defs>
</svg>
