<svg width="50" height="50" viewBox="0 0 50 50" fill="none" xmlns="http://www.w3.org/2000/svg">
<g clip-path="url(#clip0_65_63)">
<path d="M31.9156 4.59688L34.075 0.659382C34.2188 0.400007 34.1688 0.200007 33.925 0.0593818C33.6594 -0.0593682 33.4563 6.84243e-06 33.3156 0.240632L31.1281 4.20938C29.2013 3.3653 27.1193 2.93315 25.0156 2.94063C22.8656 2.94063 20.8281 3.36251 18.9031 4.20313L16.7156 0.234382C16.5719 6.84243e-06 16.3719 -0.0562432 16.1063 0.0625068C15.8625 0.206257 15.8125 0.406257 15.9531 0.665632L18.1125 4.60001C15.9901 5.64449 14.1852 7.23686 12.8844 9.21251C11.6042 11.1284 10.9262 13.3833 10.9375 15.6875H39.0625C39.0625 13.3438 38.4125 11.1875 37.1156 9.21251C35.8207 7.24223 34.0264 5.65063 31.9156 4.60001V4.59688ZM19.4375 10.3219C19.3289 10.4326 19.199 10.5202 19.0556 10.5793C18.9121 10.6384 18.7582 10.6677 18.6031 10.6656C18.4497 10.6692 18.2972 10.6404 18.1556 10.5812C18.014 10.522 17.8865 10.4336 17.7813 10.3219C17.6732 10.2137 17.5879 10.0849 17.5305 9.94325C17.4731 9.80154 17.4446 9.64976 17.4469 9.49688C17.4449 9.34357 17.4735 9.1914 17.5309 9.04923C17.5883 8.90706 17.6734 8.77773 17.7813 8.66876C17.8866 8.55716 18.0142 8.4689 18.1557 8.40969C18.2973 8.35047 18.4497 8.32163 18.6031 8.32501C18.925 8.32501 19.2063 8.44063 19.4375 8.66876C19.5496 8.77531 19.6386 8.90385 19.6988 9.04634C19.7591 9.18882 19.7892 9.3422 19.7875 9.49688C19.7888 9.65104 19.7584 9.80382 19.6982 9.94574C19.638 10.0877 19.5493 10.2157 19.4375 10.3219ZM32.2531 10.3219C32.1482 10.4331 32.0211 10.5211 31.8801 10.5803C31.7391 10.6395 31.5873 10.6686 31.4344 10.6656C31.2787 10.6683 31.1242 10.6393 30.9802 10.5801C30.8362 10.521 30.7057 10.4332 30.5969 10.3219C30.4848 10.2159 30.3959 10.0879 30.3357 9.94596C30.2754 9.80399 30.2452 9.65109 30.2469 9.49688C30.2469 9.17501 30.3625 8.90001 30.5969 8.66876C30.7059 8.55763 30.8363 8.46985 30.9803 8.41075C31.1243 8.35165 31.2788 8.32248 31.4344 8.32501C31.7594 8.32501 32.0281 8.44063 32.2531 8.66876C32.3614 8.77741 32.4468 8.90669 32.5042 9.04893C32.5617 9.19118 32.59 9.3435 32.5875 9.49688C32.5875 9.81563 32.4781 10.0906 32.2531 10.3219ZM10.9375 36.7813C10.9375 37.7 11.2625 38.4813 11.9094 39.125C12.5594 39.7625 13.3469 40.0844 14.2844 40.0844H16.6531L16.6844 46.9031C16.6844 47.7656 16.9875 48.4969 17.5969 49.1C17.8816 49.3903 18.2223 49.6197 18.5983 49.7744C18.9743 49.9291 19.3778 50.0059 19.7844 50C20.1959 50.008 20.6047 49.9323 20.9861 49.7776C21.3675 49.6229 21.7135 49.3924 22.0031 49.1C22.2985 48.8165 22.532 48.475 22.689 48.097C22.8461 47.7189 22.9232 47.3124 22.9156 46.9031V40.0844H27.1125V46.9031C27.1125 47.7656 27.4156 48.4969 28.025 49.1C28.3146 49.3925 28.6606 49.6231 29.042 49.7778C29.4234 49.9326 29.8322 50.0081 30.2438 50C30.6552 50.008 31.0641 49.9323 31.4454 49.7776C31.8268 49.6229 32.1728 49.3924 32.4625 49.1C32.7579 48.8165 32.9914 48.475 33.1484 48.097C33.3055 47.7189 33.3826 47.3124 33.375 46.9031V40.0844H35.75C36.6594 40.0844 37.4375 39.7625 38.0906 39.1219C38.7375 38.4813 39.0625 37.7 39.0625 36.7781V16.7656H10.9375V36.7781V36.7813ZM43.7344 16.1969C43.3295 16.19 42.9273 16.2631 42.5508 16.4122C42.1743 16.5613 41.831 16.7834 41.5406 17.0656C41.2456 17.3376 41.0115 17.669 40.8537 18.0379C40.6959 18.4069 40.618 18.805 40.625 19.2063V31.9031C40.625 32.75 40.9313 33.4688 41.5406 34.0594C41.8281 34.3469 42.1704 34.5736 42.5473 34.7261C42.9242 34.8785 43.3279 34.9536 43.7344 34.9469C44.6094 34.9469 45.35 34.65 45.9594 34.0594C46.2542 33.7839 46.488 33.4497 46.6457 33.0783C46.8034 32.7069 46.8815 32.3066 46.875 31.9031V19.2063C46.8821 18.805 46.8041 18.4069 46.6463 18.0379C46.4885 17.669 46.2544 17.3376 45.9594 17.0656C45.6641 16.7813 45.3155 16.5582 44.9336 16.4091C44.5518 16.26 44.1442 16.1879 43.7344 16.1969ZM4.04063 17.0813C4.33362 16.7927 4.68147 16.5658 5.06362 16.4139C5.44578 16.262 5.85449 16.1882 6.26563 16.1969C7.11876 16.1969 7.85001 16.4906 8.45938 17.0813C8.75195 17.3519 8.98458 17.6808 9.14228 18.0468C9.29999 18.4128 9.37927 18.8077 9.37501 19.2063V31.9031C9.38198 32.3052 9.30561 32.7044 9.15072 33.0755C8.99582 33.4466 8.76575 33.7816 8.47501 34.0594C8.18571 34.3488 7.84082 34.5766 7.46111 34.7291C7.0814 34.8817 6.67474 34.9557 6.26563 34.9469C5.8543 34.955 5.4455 34.8806 5.06336 34.7282C4.68122 34.5758 4.33347 34.3484 4.04063 34.0594C3.74583 33.7839 3.51204 33.4497 3.35433 33.0783C3.19662 32.7069 3.1185 32.3066 3.12501 31.9031V19.2063C3.12501 18.3813 3.43126 17.6719 4.04063 17.0813Z" fill="#1A1B25"/>
</g>
<defs>
<clipPath id="clip0_65_63">
<rect width="50" height="50" fill="white"/>
</clipPath>
</defs>
</svg>
