<svg width="50" height="50" viewBox="0 0 50 50" fill="none" xmlns="http://www.w3.org/2000/svg">
<g clip-path="url(#clip0_65_64)">
<path d="M7.64583 12.7917C7.64583 12.7917 3.79167 16.4792 3.58333 20.375V21.1042C3.75 24.25 6.125 26.1042 6.125 26.1042C9.9375 29.8334 19.1667 34.5209 21.3333 35.5834C21.3333 35.5834 21.4583 35.6459 21.5417 35.5625L21.5833 35.4792V35.4167V35.3959C15.6667 22.5 7.64583 12.7917 7.64583 12.7917ZM20.1042 38.75C20.0625 38.5834 19.8958 38.5834 19.8958 38.5834L4.52083 39.125C6.1875 42.1042 9 44.3959 11.9375 43.7084C13.9375 43.1875 18.5208 40 20.0208 38.9167C20.1458 38.8125 20.1042 38.7292 20.1042 38.7292V38.75ZM20.2708 37.125C13.5208 32.5625 0.4375 25.5834 0.4375 25.5834C0.125 26.5417 0.0208333 27.4584 0 28.2917V28.4375C0 30.6667 0.833333 32.2292 0.833333 32.2292C2.5 35.75 5.70833 36.8125 5.70833 36.8125C7.16667 37.4375 8.625 37.4584 8.625 37.4584C8.875 37.5 17.7917 37.4584 20.1667 37.4584C20.2708 37.4584 20.3333 37.3542 20.3333 37.3542V37.2292C20.3333 37.1667 20.2708 37.125 20.2708 37.125ZM18.875 6.64585C17.3979 7.023 16.0807 7.86397 15.117 9.0452C14.1533 10.2264 13.5938 11.6856 13.5208 13.2084V14.0625C13.5833 15.3125 13.8542 16.25 13.8542 16.25C15.2292 22.2917 21.8958 32.1875 23.3333 34.2709C23.4375 34.375 23.5417 34.3334 23.5417 34.3334C23.5817 34.3161 23.6153 34.2867 23.6377 34.2493C23.6601 34.2119 23.6702 34.1685 23.6667 34.125C25.875 12.0417 21.3542 6.16669 21.3542 6.16669C20.6875 6.20835 18.875 6.64585 18.875 6.64585ZM36.1667 11.375C36.1667 11.375 35.1458 7.62502 31.0833 6.62502C31.0833 6.62502 29.8958 6.33335 28.6458 6.16669C28.6458 6.16669 24.1042 12.0209 26.3125 34.1459C26.3333 34.2917 26.4375 34.3125 26.4375 34.3125C26.5833 34.375 26.6458 34.25 26.6458 34.25C28.1458 32.1042 34.7708 22.25 36.125 16.25C36.125 16.25 36.875 13.3334 36.1667 11.375ZM30.0833 38.6042C30.0833 38.6042 29.9375 38.6042 29.8958 38.7084C29.8958 38.7084 29.875 38.8542 29.9583 38.9167C31.4167 39.9792 35.8958 43.0834 38.0417 43.7084C38.0417 43.7084 38.375 43.8125 38.9375 43.8334H39.2292C40.6667 43.7917 43.1875 43.0625 45.4792 39.125L30.0625 38.6042H30.0833ZM46.3958 21.0834C46.6875 16.7917 42.3542 12.8125 42.3542 12.7917C42.3542 12.7917 34.3333 22.5 28.4583 35.2917C28.4583 35.2917 28.3958 35.4584 28.5 35.5625L28.5833 35.5834H28.7083C30.9167 34.4792 40.0833 29.8125 43.875 26.125C43.875 26.125 46.2708 24.1875 46.3958 21.0834ZM49.5625 25.5417C49.5625 25.5417 36.4792 32.5625 29.7292 37.1042C29.7292 37.1042 29.625 37.1875 29.6667 37.3334C29.6667 37.3334 29.7292 37.4584 29.8125 37.4584C32.2292 37.4584 41.3958 37.4584 41.625 37.4167C41.625 37.4167 42.8125 37.375 44.2708 36.8125C44.2708 36.8125 47.5208 35.7709 49.2083 32.0834C49.2083 32.0834 50.7292 29.0625 49.5625 25.5417Z" fill="#1A1B25"/>
</g>
<defs>
<clipPath id="clip0_65_64">
<rect width="50" height="50" fill="white"/>
</clipPath>
</defs>
</svg>
