<svg width="50" height="50" viewBox="0 0 50 50" fill="none" xmlns="http://www.w3.org/2000/svg">
<path d="M24.3051 12.705C24.3051 12.8653 24.1449 12.8653 24.1449 12.8653H23.9846C23.8244 12.8653 23.8244 12.705 23.6641 12.5448C23.6641 12.5448 23.5039 12.3845 23.5039 12.2243C23.5039 12.064 23.5039 12.064 23.6641 12.064L23.9846 12.2243C24.1449 12.3845 24.3051 12.5448 24.3051 12.705ZM21.4205 11.1025C21.4205 10.3012 21.1 9.82042 20.6192 9.82042C20.6192 9.82042 20.6192 9.98068 20.459 9.98068V10.3012H20.9398C20.9398 10.6217 21.1 10.782 21.1 11.1025H21.4205ZM27.0295 10.3012C27.35 10.3012 27.5103 10.6217 27.6705 11.1025H27.991C27.8308 10.9422 27.8308 10.782 27.8308 10.6217C27.8308 10.4614 27.8308 10.3012 27.6705 10.1409C27.5103 9.98068 27.35 9.82042 27.1898 9.82042C27.1898 9.82042 27.0295 9.98068 26.8692 9.98068C26.8692 10.1409 27.0295 10.1409 27.0295 10.3012ZM22.2218 12.8653C22.0615 12.8653 22.0615 12.8653 22.0615 12.705C22.0615 12.5448 22.0615 12.3845 22.2218 12.2243C22.5423 12.2243 22.7026 12.064 22.7026 12.064C22.8628 12.064 22.8628 12.2243 22.8628 12.2243C22.8628 12.3845 22.7026 12.5448 22.3821 12.8653H22.2218ZM20.459 12.705C19.818 12.3845 19.6577 11.9038 19.6577 11.1025C19.6577 10.6217 19.6577 10.3012 19.9782 9.98068C20.1385 9.66016 20.459 9.49991 20.7795 9.49991C21.1 9.49991 21.2603 9.66016 21.5808 9.98068C21.741 10.4614 21.9013 10.9422 21.9013 11.423V11.7435H22.0615V11.5832C22.2218 11.5832 22.2218 11.2627 22.2218 10.6217C22.2218 10.1409 22.2218 9.66016 21.9013 9.17939C21.5808 8.69863 21.2603 8.37811 20.6192 8.37811C20.1385 8.37811 19.6577 8.69863 19.4974 9.17939C19.1769 9.82042 19.1128 10.3012 19.1128 11.1025C19.1128 11.7435 19.3372 12.3845 19.9782 13.0255C20.1385 12.8653 20.2987 12.8653 20.459 12.705ZM40.491 35.3012C40.6513 35.3012 40.6513 35.2371 40.6513 35.0929C40.6513 34.7403 40.491 34.3236 40.0103 33.8589C39.5295 33.3781 38.7282 33.0736 37.7667 32.9454C37.6064 32.9294 37.4462 32.9294 37.4462 32.9294C37.2859 32.8973 37.2859 32.8973 37.1256 32.8973C36.9654 32.8813 36.6449 32.8493 36.4846 32.8172C36.9654 31.3268 37.1256 30.0127 37.1256 28.8589C37.1256 27.2563 36.8051 26.1345 36.1641 25.173C35.5231 24.2114 34.8821 23.7307 34.0808 23.5704C33.9205 23.7307 33.9205 23.7307 33.9205 23.8909C34.7218 24.2114 35.5231 24.8525 36.0039 25.814C36.4846 26.9358 36.6449 27.8973 36.6449 29.0191C36.6449 29.9166 36.4846 31.2467 35.8436 32.9454C35.2026 33.2018 34.5615 33.7948 34.0808 34.7243C34.0808 34.8685 34.0808 34.9486 34.241 34.9486C34.241 34.9486 34.4013 34.8044 34.5615 34.532C34.8821 34.2595 35.0423 33.9871 35.3628 33.7147C35.8436 33.4422 36.1641 33.298 36.6449 33.298C37.4462 33.298 38.2474 33.4102 38.7282 33.6345C39.3692 33.8429 39.6898 34.0672 39.85 34.3236C40.0103 34.564 40.1705 34.7884 40.3308 34.9967C40.3308 35.205 40.491 35.3012 40.491 35.3012ZM25.7474 12.064C25.5872 11.9038 25.5872 11.5832 25.5872 11.2627C25.5872 10.6217 25.5872 10.3012 25.9077 9.82042C26.2282 9.49991 26.5487 9.33965 26.8692 9.33965C27.35 9.33965 27.6705 9.66016 27.991 9.98068C28.1513 10.4614 28.3115 10.782 28.3115 11.2627C28.3115 12.064 27.991 12.5448 27.35 12.705C27.35 12.705 27.5103 12.8653 27.6705 12.8653C27.991 12.8653 28.1513 13.0255 28.4718 13.1858C28.6321 12.2243 28.7923 11.5832 28.7923 10.782C28.7923 9.82042 28.6321 9.17939 28.3115 8.69863C27.8308 8.21786 27.35 8.0576 26.709 8.0576C26.2282 8.0576 25.7474 8.21786 25.2667 8.53837C24.9462 9.01914 24.7859 9.33965 24.7859 9.82042C24.7859 10.6217 24.9462 11.2627 25.2667 11.9038C25.4269 11.9038 25.5872 12.064 25.7474 12.064ZM27.6705 14.6281C25.5872 16.0704 23.9846 16.7114 22.7026 16.7114C21.5808 16.7114 20.459 16.2307 19.4974 15.4294C19.6577 15.7499 19.818 16.0704 19.9782 16.2307L20.9398 17.1922C21.5808 17.8332 22.3821 18.1538 23.1833 18.1538C24.3051 18.1538 25.5872 17.5127 27.1898 16.3909L28.6321 15.4294C28.9526 15.1089 29.2731 14.7884 29.2731 14.3076C29.2731 14.1473 29.2731 13.9871 29.1128 13.9871C28.9526 13.6666 28.1513 13.1858 26.5487 12.705C25.1064 12.064 23.9846 11.7435 23.3436 11.7435C22.8628 11.7435 22.0615 12.064 20.9398 12.705C19.9782 13.3461 19.3372 13.9871 19.3372 14.6281C19.3372 14.6281 19.4974 14.7884 19.6577 15.1089C20.6192 15.9102 21.5808 16.3909 22.5423 16.3909C23.8244 16.3909 25.4269 15.7499 27.5103 14.1473V14.4679C27.6705 14.4679 27.6705 14.6281 27.6705 14.6281ZM31.3564 46.9999C31.9974 48.205 33.1192 48.8108 34.4013 48.8108C34.7218 48.8108 35.0423 48.7627 35.3628 48.6666C35.6833 48.6025 36.0039 48.4903 36.1641 48.3621C36.3244 48.2499 36.4846 48.1377 36.6449 48.0095C36.9654 47.8973 36.9654 47.8172 37.1256 47.7371L39.85 45.3813C40.491 44.8701 41.1321 44.423 41.9333 44.0352C42.5744 43.6505 43.2154 43.3941 43.5359 43.2499C44.0167 43.1217 44.3372 42.9294 44.6577 42.673C44.818 42.4326 44.9782 42.1281 44.9782 41.7435C44.9782 41.2788 44.6577 40.9262 44.3372 40.6698C44.0167 40.4134 43.6962 40.2371 43.3756 40.1249C43.0551 40.0127 42.7346 39.7563 42.2539 39.3236C41.9333 38.907 41.6128 38.33 41.4526 37.5768L41.2923 36.6473C41.1321 36.2147 41.1321 35.8941 40.9718 35.7179C40.9718 35.6698 40.9718 35.6538 40.8115 35.6538C40.6513 35.6538 40.3308 35.798 40.1705 36.0704C39.85 36.3429 39.5295 36.6473 39.209 36.9679C39.0487 37.2884 38.568 37.5768 38.2474 37.8493C37.7667 38.1217 37.2859 38.2659 36.9654 38.2659C35.6833 38.2659 35.0423 37.9134 34.5615 37.2243C34.241 36.7114 34.0808 36.1185 33.9205 35.4454C33.6 35.173 33.4398 35.0288 33.1192 35.0288C32.318 35.0288 31.9974 35.8621 31.9974 37.5448V42.5288C31.9974 42.673 31.8372 42.9935 31.8372 43.4903C31.6769 43.9871 31.6769 44.5512 31.6769 45.189L31.3564 46.9679V46.9951M8.11924 46.1473C9.60962 46.3653 11.3244 46.8316 13.2635 47.5432C15.2026 48.2483 16.3885 48.6169 16.8212 48.6169C17.943 48.6169 18.8724 48.1201 19.6417 47.1602C19.8019 46.8493 19.8019 46.4839 19.8019 46.064C19.8019 44.5496 18.8885 42.6345 17.0615 40.3108L15.9718 38.8525C15.7474 38.548 15.475 38.0832 15.1224 37.4582C14.7859 36.8332 14.4814 36.3525 14.241 36.0159C14.0327 35.6473 13.6962 35.2788 13.2635 34.9102C12.8468 34.5416 12.366 34.3012 11.8372 34.173C11.1641 34.3012 10.6994 34.5256 10.475 34.83C10.2506 35.1345 10.1224 35.4711 10.0904 35.8236C10.0423 36.1602 9.94616 36.3845 9.7859 36.4967C9.62565 36.5929 9.35321 36.673 8.98462 36.7531C8.90449 36.7531 8.76026 36.7531 8.55193 36.7691H8.11924C7.26988 36.7691 6.69296 36.8653 6.38847 37.0256C5.98783 37.4903 5.77949 38.0191 5.77949 38.58C5.77949 38.8364 5.8436 39.2691 5.9718 39.8781C6.10001 40.4711 6.16411 40.9518 6.16411 41.2884C6.16411 41.9454 5.9718 42.6025 5.57116 43.2595C5.17052 43.9486 4.96219 44.4614 4.96219 44.8268C5.12244 45.4486 6.18014 45.8861 8.11924 46.1425M13.4558 31.5752C13.4558 30.4695 13.7442 29.2515 14.3372 27.8092C14.9141 26.3669 15.491 25.4054 16.0519 24.7643C16.0199 24.6041 15.9398 24.6041 15.8115 24.6041L15.6513 24.4438C15.1865 24.9246 14.6256 26.0464 13.9526 27.6489C13.2795 29.0913 12.9269 30.4214 12.9269 31.3989C12.9269 32.1201 13.1032 32.7451 13.4237 33.29C13.7763 33.8188 14.6256 34.5881 15.9718 35.5656L17.6705 36.6714C19.4814 38.2419 20.443 39.3316 20.443 39.9727C20.443 40.3092 20.2827 40.6457 19.8019 41.0143C19.4814 41.3989 19.0487 41.5913 18.6801 41.5913C18.6481 41.5913 18.6321 41.6233 18.6321 41.7034C18.6321 41.7195 18.7923 42.04 19.1289 42.665C19.8019 43.5784 21.2442 44.0272 23.1673 44.0272C26.693 44.0272 29.4173 42.5848 31.5006 39.7002C31.5006 38.8989 31.5006 38.4022 31.3404 38.1938V37.6009C31.3404 36.5592 31.5006 35.7739 31.8212 35.2611C32.1417 34.7483 32.4622 34.5079 32.943 34.5079C33.2635 34.5079 33.584 34.6201 33.9045 34.8605C34.0647 33.6265 34.0647 32.5528 34.0647 31.5913C34.0647 30.1329 34.0647 28.931 33.7442 27.8092C33.584 26.8477 33.2635 26.0464 32.943 25.4054L31.9814 23.9631C31.6609 23.4823 31.5006 23.0015 31.1801 22.5207C31.0199 21.8797 30.8596 21.3989 30.8596 20.5977C30.3789 19.7964 30.0583 18.9951 29.5776 18.1938C29.2571 17.3925 28.9365 16.5913 28.616 15.9502L27.1737 17.072C25.5712 18.1938 24.2891 18.6746 23.1673 18.6746C22.2058 18.6746 21.4045 18.5143 20.9237 17.8733L19.9622 17.072C19.9622 17.5528 19.8019 18.1938 19.4814 18.8348L18.4718 20.7579C18.0231 21.8797 17.7827 22.5207 17.7346 23.0015C17.6705 23.322 17.6224 23.6425 17.5904 23.6425L16.3885 26.0464C15.0904 28.4502 14.4333 30.6778 14.4333 32.5207C14.4333 32.8893 14.4654 33.2739 14.5295 33.6586C13.8083 33.1618 13.4558 32.4727 13.4558 31.5752ZM24.9301 46.7355C22.8468 46.7355 21.2442 47.0175 20.1224 47.5768V47.5288C19.3212 48.4903 18.4237 48.9871 17.1737 48.9871C16.3885 48.9871 15.1545 48.6826 13.4878 48.0736C11.8051 47.4967 10.3148 47.0544 9.01667 46.7627C8.88847 46.7259 8.60001 46.6714 8.13526 46.5977C7.68655 46.5255 7.26988 46.4518 6.90129 46.3781C6.56475 46.306 6.18014 46.197 5.76347 46.0496C5.36283 45.923 5.04231 45.7579 4.80193 45.5576C4.58078 45.3557 4.4718 45.1281 4.4718 44.8733C4.4718 44.6169 4.52629 44.3429 4.63526 44.0512C4.73783 43.8749 4.85001 43.6986 4.96219 43.5384C5.07437 43.3621 5.17052 43.2018 5.23462 43.0416C5.33078 42.8973 5.39488 42.7531 5.45898 42.5929C5.52308 42.4486 5.58719 42.3044 5.61924 42.1281C5.65129 41.9679 5.68334 41.8076 5.68334 41.6473C5.68334 41.4871 5.61924 41.0063 5.49103 40.157C5.36283 39.3236 5.29872 38.7948 5.29872 38.5704C5.29872 37.8653 5.45898 37.3044 5.81155 36.9038C6.16411 36.5031 6.50065 36.2948 6.85321 36.2948H8.69616C8.84039 36.2948 9.06475 36.2147 9.40129 36.0223C9.51347 35.7659 9.60962 35.5576 9.67372 35.3653C9.75385 35.173 9.7859 35.0288 9.81796 34.9647C9.85001 34.8685 9.88206 34.7723 9.91411 34.6922C9.97821 34.58 10.0583 34.4518 10.1705 34.3236C10.0423 34.1634 9.97821 33.955 9.97821 33.6986C9.97821 33.5223 9.97821 33.3621 10.0103 33.2659C10.0103 32.689 10.2827 31.8717 10.8596 30.798L11.4205 29.7884C11.8853 28.923 12.2378 28.282 12.4942 27.6409C12.7667 26.9999 13.0551 26.0384 13.3756 24.7563C13.6321 23.6345 14.241 22.5127 15.2026 21.3909L16.4045 19.9486C17.2378 18.9871 17.7827 18.1858 18.0872 17.5448C18.3917 16.9038 18.5519 16.1025 18.5519 15.4614C18.5519 15.1409 18.4718 14.1794 18.2955 12.5768C18.1353 10.9743 18.0551 9.3717 18.0551 7.9294C18.0551 6.8076 18.1513 6.00632 18.3596 5.20504C18.568 4.40375 18.9365 3.60247 19.4814 2.96145C19.9622 2.32042 20.6032 1.67939 21.5648 1.35888C22.5263 1.03837 23.6481 0.878113 24.9301 0.878113C25.4109 0.878113 25.8917 0.878113 26.3724 1.03837C26.8532 1.03837 27.4942 1.19863 28.2955 1.51914C28.9365 1.83965 29.5776 2.16016 30.0583 2.64093C30.6994 3.1217 31.1801 3.92298 31.6609 4.72427C31.9814 5.68581 32.3019 6.64734 32.4622 7.9294C32.6224 8.73068 32.6224 9.53196 32.7827 10.6538C32.7827 11.6153 32.943 12.2563 32.943 12.7371C33.1032 13.2179 33.1032 13.8589 33.2635 14.6602C33.4237 15.3012 33.584 15.9422 33.9045 16.423C34.225 17.064 34.5455 17.705 35.0263 18.3461C35.5071 19.1473 36.1481 19.9486 36.7891 20.9102C38.2314 22.5127 39.3532 24.2755 39.9942 26.0384C40.7955 27.6409 41.2763 29.7243 41.2763 31.9518C41.2763 33.0576 41.116 34.1313 40.7955 35.173C41.116 35.173 41.2763 35.3012 41.4365 35.5256C41.5968 35.7499 41.7571 36.2307 41.9173 36.9839L42.0776 38.1698C42.2378 38.5223 42.3981 38.8589 42.8789 39.1473C43.1994 39.4358 43.5199 39.6762 44.0006 39.8685C44.3212 40.0288 44.8019 40.2531 45.1224 40.5416C45.443 40.8621 45.6032 41.1986 45.6032 41.5512C45.6032 42.0961 45.443 42.4967 45.1224 42.7852C44.8019 43.1057 44.4814 43.33 44.0006 43.4743C43.6801 43.6345 43.0391 43.955 42.0776 44.407C41.2763 44.8813 40.475 45.4566 39.6737 46.1377L38.0712 47.5015C37.4301 48.1265 36.7891 48.5752 36.3083 48.8477C35.8276 49.1361 35.1865 49.2804 34.5455 49.2804L33.4237 49.1521C32.1417 48.8156 31.3404 48.1746 30.8596 47.197C28.2955 46.8861 26.2122 46.7323 24.9301 46.7323" fill="#1A1B25"/>
</svg>
