<svg width="150" height="150" viewBox="0 0 150 150" fill="none" xmlns="http://www.w3.org/2000/svg">
<path d="M14.5426 104.41C14.3616 104.41 14.1825 104.374 14.0154 104.305C13.8484 104.235 13.6968 104.133 13.5694 104.003L13.5546 103.989C13.4252 103.859 13.3226 103.705 13.2525 103.535C13.1825 103.365 13.1465 103.183 13.1465 103C13.1465 102.816 13.1825 102.634 13.2525 102.464C13.3226 102.295 13.4252 102.141 13.5546 102.011C13.684 101.881 13.8376 101.778 14.0066 101.708C14.1756 101.637 14.3568 101.601 14.5398 101.601C14.7228 101.601 14.9039 101.637 15.073 101.708C15.242 101.778 15.3956 101.881 15.525 102.011C15.7203 102.207 15.8534 102.457 15.9076 102.728C15.9618 103 15.9347 103.282 15.8297 103.539C15.7247 103.795 15.5465 104.015 15.3174 104.17C15.0884 104.325 14.8188 104.408 14.5426 104.41Z" fill="#1A1B25"/>
<path d="M19.0071 111.991C20.5464 114.603 22.2784 117.096 24.1885 119.448V119.467H24.2071C25.6556 121.294 27.1971 123.046 28.8871 124.742C47.9599 143.85 75.8171 148.678 99.3285 139.171C100.35 138.761 101.353 138.332 102.374 137.866H102.393C109.353 134.639 115.685 130.195 121.094 124.742C126.963 118.87 131.439 112.159 134.614 104.982C135.004 104.106 135.357 103.249 135.691 102.372C135.691 102.335 135.729 102.298 135.747 102.261V102.205C144.847 78.7536 139.963 51.1269 121.094 32.1871C120.333 31.4228 119.571 30.6772 118.773 29.9688C118.179 29.4282 117.584 28.9062 116.971 28.3843L116.749 28.2724L87.8514 14.7014C87.7771 14.6828 87.7028 14.6641 87.6285 14.6641C85.8456 14.3099 84.0442 14.0303 82.2242 13.8066C72.5114 12.6881 62.5942 13.4711 53.3828 16.696C46.2009 19.2359 39.519 23.0217 33.6413 27.8809C32.0071 29.2231 30.4099 30.6585 28.8871 32.1871C27.8842 33.2311 26.9185 34.2563 25.9713 35.3189V35.3562C25.0428 36.4001 24.1699 37.4627 23.3528 38.5625C21.8259 40.5264 20.4181 42.5806 19.1371 44.7142C11.8199 56.8499 8.82992 70.8869 10.0928 84.5884C10.5756 89.9385 11.7456 95.2514 13.5656 100.359C13.8628 101.254 14.1971 102.13 14.5313 103.006H14.5499C15.1442 104.498 15.8128 105.989 16.5185 107.443" fill="#FF8E14"/>
<path d="M74.9795 145.317C57.3213 145.311 40.3882 138.266 27.9028 125.732C26.2382 124.059 24.6689 122.294 23.2024 120.444C23.1367 120.379 23.0782 120.308 23.0278 120.231C21.1063 117.853 17.0171 111.208 15.463 108.573C15.3643 108.415 15.2982 108.238 15.2686 108.054C15.2391 107.869 15.2466 107.681 15.2907 107.5C15.3349 107.318 15.4149 107.147 15.5258 106.998C15.6368 106.848 15.7766 106.722 15.9369 106.627C16.0972 106.532 16.2748 106.47 16.4592 106.446C16.6436 106.421 16.8311 106.434 17.0106 106.483C17.1901 106.532 17.3579 106.617 17.5042 106.732C17.6505 106.847 17.7723 106.991 17.8624 107.154C19.3755 109.717 23.4214 116.29 25.2972 118.598C26.7233 120.403 28.2504 122.125 29.8714 123.756C48.0138 141.932 75.0779 147.476 98.8085 137.877C99.815 137.473 100.812 137.045 101.798 136.594C101.839 136.574 101.881 136.557 101.925 136.544C108.69 133.392 114.846 129.063 120.108 123.756C125.674 118.188 130.161 111.631 133.34 104.417C133.721 103.564 134.064 102.728 134.389 101.875L134.393 101.877C138.93 90.2726 139.995 77.5918 137.458 65.3892C134.92 53.1865 128.891 41.9922 120.108 33.1789C119.378 32.436 118.625 31.7161 117.85 31.0202C117.296 30.515 116.754 30.0378 116.197 29.5624L116.121 29.5233L87.4056 16.0361C85.6323 15.694 83.8477 15.413 82.0552 15.1935C72.1343 14.0527 62.3769 15.0258 53.8415 18.0159C46.8147 20.5007 40.2773 24.2052 34.5272 28.9603C32.9069 30.2878 31.353 31.6951 29.8714 33.177C28.9484 34.1389 28.0421 35.0971 27.1525 36.0907C27.1114 36.1599 27.0635 36.2248 27.0095 36.2845C26.1164 37.2839 25.2681 38.3226 24.4671 39.3977C22.967 41.3252 21.5846 43.3422 20.3275 45.4375C13.3669 56.9803 10.2246 70.8403 11.4782 84.4579C11.9575 89.7239 13.0994 94.9078 14.8768 99.8856C15.1535 100.721 15.4544 101.515 15.7571 102.305C15.791 102.363 15.8202 102.424 15.8444 102.486C16.3922 103.862 17.0404 105.323 17.7721 106.831C17.9335 107.165 17.9565 107.549 17.836 107.9C17.7155 108.25 17.4615 108.539 17.1295 108.701C16.7972 108.863 16.4147 108.885 16.0659 108.764C15.7171 108.643 15.4304 108.387 15.2686 108.054C14.5758 106.632 13.9323 105.187 13.3391 103.72C13.2979 103.652 13.2625 103.58 13.2332 103.506C12.8915 102.611 12.5498 101.716 12.2471 100.801C10.3958 95.6097 9.20649 90.2043 8.70736 84.7133C7.39808 70.5066 10.6796 56.0427 17.9485 43.9891C19.2578 41.8073 20.6973 39.7069 22.2589 37.6994C23.0204 36.676 23.8542 35.647 24.7902 34.5882C24.8321 34.5162 24.8813 34.4487 24.9369 34.3868C25.9 33.3114 26.8839 32.2548 27.8879 31.2178C29.3922 29.7059 31.0265 28.2258 32.7629 26.7997C38.7642 21.8364 45.5877 17.9704 52.9222 15.3781C61.9851 12.2072 71.8966 11.2098 82.3876 12.4178C84.3079 12.6546 86.0796 12.9342 87.8105 13.2753C87.9646 13.2902 88.1002 13.3201 88.2153 13.3517C88.2942 13.3736 88.3712 13.4017 88.4456 13.4356L117.603 27.1371C117.701 27.1856 117.792 27.249 117.876 27.3198C118.502 27.8492 119.107 28.3824 119.712 28.9342C120.52 29.65 121.302 30.4162 122.084 31.201C131.206 40.3595 137.481 51.9801 140.147 64.6508C142.813 77.3215 141.756 90.4968 137.103 102.576C137.081 102.683 137.045 102.788 136.997 102.887L136.976 102.926C133.637 111.481 128.564 119.247 122.08 125.732C116.556 131.303 110.088 135.842 102.978 139.135C102.932 139.156 102.884 139.175 102.837 139.191C101.85 139.639 100.854 140.064 99.8485 140.468C91.9449 143.669 83.5021 145.315 74.9795 145.317Z" fill="#1A1B25"/>
<path d="M135.754 102.201C135.754 102.216 135.74 102.244 135.74 102.259C135.725 102.302 135.697 102.33 135.682 102.372C129.316 103.001 125.037 98.9051 122.706 95.7528C121.296 93.8191 119.294 92.4012 117.007 91.715C109.858 89.5042 107.143 81.4007 107.143 81.4007C105.069 72.9561 119.28 65.5946 119.28 65.5946C124.794 61.4152 123.913 56.6075 121.922 53.0693C121.456 52.2576 120.887 51.5095 120.231 50.8436C118.365 48.9821 115.903 47.8447 113.281 47.6335C109.331 47.3054 105.464 49.0894 103.219 52.3983C97.1649 61.2716 91.2091 61.143 87.4855 59.674C84.7146 58.576 81.6151 58.8333 78.9148 60.1028C74.3518 62.2857 70.5576 62.6996 70.5576 62.6996C68.8101 63.0426 67.3039 62.8711 65.9946 62.3715C59.6989 59.9611 59.7973 50.8025 66.0522 48.2915C70.3292 46.5653 72.6191 44.2687 72.6191 44.2687C75.1355 41.1015 72.0786 37.1066 69.1518 34.3682C68.0495 33.3513 66.6745 32.6811 65.1968 32.4402C63.7191 32.1993 62.2035 32.3985 60.8373 33.013L53.0485 36.5791C51.9481 37.078 50.744 37.3031 49.5385 37.2353L46.9942 37.1066C45.8258 37.054 44.661 37.2709 43.5892 37.7408C42.5175 38.2107 41.5673 38.921 40.8118 39.8171C40.2275 40.532 39.5079 41.1238 38.6946 41.5582C37.0725 42.4736 35.1704 42.7542 33.3545 42.346C31.5387 41.9378 29.9374 40.8697 28.8592 39.3473L25.9602 35.3525C25.9602 35.3375 25.9751 35.3375 25.9751 35.3245C26.9199 34.2536 27.8915 33.2069 28.8889 32.1853C30.3985 30.6706 31.9828 29.2328 33.6358 27.8772C39.5128 23.0207 46.1951 19.2398 53.3772 16.7072C62.5868 13.4692 72.5076 12.6844 82.2279 13.8122C84.1185 14.0266 85.9942 14.3398 87.8551 14.7107L116.962 28.3917C118.392 29.599 119.771 30.8646 121.098 32.1853C139.961 51.1288 144.851 78.7611 135.754 102.201Z" fill="#F0386B"/>
<path d="M135.747 102.205V102.261C135.729 102.298 135.691 102.335 135.691 102.372C135.394 102.391 135.116 102.428 134.837 102.428C140.631 80.6551 134.986 56.4584 117.956 39.3641C117.194 38.5998 116.433 37.8541 115.634 37.1458C115.04 36.6052 114.446 36.0646 113.833 35.5612L84.7128 21.8784C82.8557 21.5056 80.98 21.1886 79.0857 20.9836C69.3729 19.8465 59.4557 20.6294 50.2443 23.873C43.0632 26.4061 36.3812 30.1856 30.5029 35.0393C29.5186 35.8595 28.5343 36.6984 27.5871 37.5932L25.9714 35.3562V35.3189C26.9186 34.2563 27.8843 33.2311 28.8871 32.1871C30.41 30.6585 32.0071 29.2231 33.6414 27.8809C39.5191 23.0217 46.201 19.2359 53.3829 16.696C62.5943 13.4711 72.5114 12.6881 82.2243 13.8066C84.1186 14.0303 85.9943 14.3286 87.8514 14.7014L116.971 28.3843C117.584 28.9062 118.179 29.4282 118.773 29.9688C119.571 30.6772 120.333 31.4228 121.094 32.1871C139.963 51.1269 144.847 78.7536 135.747 102.205Z" fill="#F0386B"/>
<path d="M91.3799 122.99C91.6027 123.363 91.8813 123.717 92.197 124.034C92.8285 124.668 93.627 125.152 94.5185 125.451C96.4313 126.103 97.8985 127.669 98.3627 129.645L99.477 134.119C99.8856 135.759 100.926 137.102 102.374 137.866C101.353 138.332 100.35 138.761 99.3284 139.171C75.817 148.678 47.9599 143.85 28.887 124.742C27.197 123.046 25.6556 121.294 24.207 119.467C25.2099 119.634 26.1385 120.101 26.937 120.809C31.0599 124.444 35.0899 123.792 38.0242 122.319C39.1027 121.777 40.3231 121.586 41.5149 121.773C42.7068 121.96 43.8107 122.516 44.6727 123.363C45.0813 123.792 45.4156 124.276 45.7127 124.835C46.2911 125.987 47.2417 126.907 48.4091 127.446C49.5764 127.984 50.8913 128.109 52.1385 127.799L64.8785 124.761C66.457 124.369 67.7942 123.363 68.5927 121.965L72.9385 114.434C73.347 113.725 73.8299 113.091 74.387 112.551C74.4613 112.476 74.5356 112.383 74.6285 112.308C76.3185 110.724 78.5842 109.81 80.9985 109.885C85.1399 109.96 88.7056 112.849 89.6342 116.931L89.8942 117.994" fill="#F0386B"/>
<path d="M74.9796 145.317C57.3212 145.312 40.3878 138.267 27.9029 125.732C26.2065 124.026 24.6087 122.224 23.117 120.335C22.9415 120.114 22.8371 119.844 22.8176 119.562C22.798 119.28 22.8642 118.998 23.0074 118.755C23.1474 118.508 23.3605 118.311 23.6171 118.191C23.8738 118.072 24.1611 118.035 24.4393 118.087C25.7128 118.313 26.8979 118.892 27.8602 119.759C30.7833 122.336 33.9943 122.775 37.4022 121.066C38.7399 120.388 40.2561 120.148 41.7367 120.382C43.2173 120.615 44.5873 121.31 45.6534 122.367C46.1586 122.895 46.5727 123.478 46.9423 124.174C47.3741 125.052 48.0921 125.756 48.9771 126.168C49.8622 126.58 50.861 126.676 51.808 126.44L64.5573 123.4C65.1484 123.257 65.704 122.994 66.1901 122.627C66.6762 122.26 67.0824 121.797 67.3839 121.267L71.7333 113.731C72.2087 112.903 72.777 112.165 73.4177 111.542C73.5329 111.415 73.6387 111.309 73.7557 111.214C75.6927 109.391 78.315 108.449 81.0413 108.483C83.3672 108.526 85.6116 109.351 87.4156 110.825C89.2195 112.3 90.4787 114.339 90.9919 116.616L91.2463 117.655C92.576 122.276 92.5883 122.464 92.5635 122.648C92.5388 122.833 92.4775 123.011 92.3833 123.171C92.2892 123.332 92.164 123.472 92.0151 123.583C91.8663 123.694 91.6968 123.775 91.5165 123.819C91.3363 123.864 91.1491 123.872 90.9658 123.843C90.7824 123.814 90.6067 123.748 90.449 123.65C90.2913 123.552 90.1547 123.423 90.0473 123.271C89.9398 123.119 89.8637 122.947 89.8235 122.765L88.2823 117.263C87.9086 115.588 86.9848 114.087 85.6591 113.001C84.3335 111.916 82.6829 111.31 80.9726 111.279C78.976 111.222 76.8313 112.17 75.3714 113.539C74.8904 114.01 74.4772 114.546 74.1439 115.132L69.7963 122.666C69.3022 123.52 68.6418 124.266 67.8543 124.86C67.0669 125.453 66.1686 125.881 65.2129 126.118L52.4599 129.16C50.9078 129.548 49.2703 129.394 47.8176 128.722C46.3648 128.05 45.1835 126.902 44.4686 125.465C44.2558 125.053 43.9864 124.672 43.6682 124.334C42.3793 123.055 40.3067 122.729 38.652 123.57C36.5534 124.623 33.725 125.408 30.6329 124.505C39.4916 133.113 50.6467 138.957 62.747 141.33C74.8473 143.704 87.3736 142.504 98.8086 137.877C99.1076 137.758 99.4047 137.635 99.7019 137.512C98.9417 136.635 98.4017 135.589 98.127 134.46L97.0127 129.986C96.836 129.243 96.4729 128.559 95.958 127.997C95.4431 127.435 94.7935 127.015 94.071 126.776C92.9969 126.422 92.0192 125.823 91.2147 125.026C90.8194 124.633 90.4745 124.192 90.1877 123.713C90.01 123.396 89.9626 123.021 90.0556 122.67C90.1486 122.318 90.3747 122.016 90.6857 121.829C90.9967 121.642 91.3683 121.584 91.7213 121.667C92.0743 121.751 92.3809 121.969 92.576 122.276C92.7376 122.548 92.9437 122.807 93.1833 123.05C93.6587 123.527 94.2734 123.9 94.9587 124.127C97.3712 124.951 99.1484 126.893 99.7204 129.328L100.831 133.785C100.973 134.39 101.242 134.956 101.621 135.447C102 135.938 102.479 136.342 103.026 136.632C103.257 136.753 103.449 136.938 103.581 137.164C103.712 137.39 103.778 137.648 103.771 137.91C103.763 138.172 103.683 138.426 103.538 138.644C103.394 138.862 103.191 139.035 102.954 139.143C101.912 139.618 100.89 140.056 99.8486 140.474C91.9439 143.67 83.5016 145.314 74.9796 145.317Z" fill="#1A1B25"/>
<path d="M30.9393 88.2478C30.4226 89.1311 29.7373 89.9034 28.9228 90.5205C28.1082 91.1375 27.1804 91.5872 26.1924 91.8437L22.5394 92.828C21.6127 93.0923 20.7705 93.594 20.0954 94.2839C19.5698 94.8692 19.1854 95.5683 18.944 96.3531C18.7022 97.1837 18.2528 97.9383 17.6384 98.5452C17.024 99.1521 16.2652 99.5911 15.434 99.8204L13.5583 100.363C11.7442 95.2765 10.5792 89.9799 10.091 84.5996C8.82626 70.8907 11.8255 56.8518 19.1445 44.7124L19.1724 44.7273C19.3711 45.5699 19.685 46.31 20.0675 47.009C21.1335 48.9347 27.3865 50.8604 25.951 52.3871C25.6016 52.7742 25.1882 53.0977 24.729 53.3434C24.0474 53.7293 23.975 54.6409 24.1885 55.7966C24.2164 55.9681 24.2591 56.1396 24.274 56.3093L30.9393 88.2478Z" fill="#F0386B"/>
<path d="M13.5583 101.759C13.2712 101.759 12.991 101.67 12.7563 101.505C12.5216 101.339 12.3437 101.104 12.2471 100.833C10.3929 95.6344 9.20223 90.2213 8.70368 84.7226C7.39254 70.5215 10.6778 56.052 17.9523 43.9835C18.1327 43.6821 18.42 43.4604 18.7566 43.3629C19.0932 43.2654 19.454 43.2993 19.7667 43.4578C20.1363 43.6442 20.4334 43.9984 20.5281 44.4011C20.6905 45.0766 20.9462 45.726 21.2877 46.3305C21.5551 46.8133 23 47.6633 23.9583 48.2282C25.847 49.3392 27.3401 50.2172 27.5388 51.6172C27.628 52.2435 27.4237 52.8568 26.9668 53.3434C26.5267 53.8243 26.0308 54.2195 25.4978 54.5141C25.4737 54.6259 25.4458 54.9186 25.5591 55.5394C25.6204 55.8581 25.6501 56.0278 25.6631 56.1974L32.3043 87.9644C32.3762 88.305 32.3179 88.6604 32.1408 88.9599C31.533 90.0033 30.725 90.9152 29.7635 91.6429C28.8021 92.3706 27.7063 92.8995 26.5397 93.1989L22.9015 94.1776C22.246 94.3566 21.6145 94.7369 21.0815 95.2719C20.7473 95.6447 20.4613 96.1648 20.2755 96.7632C19.9644 97.8181 19.3905 98.7761 18.608 99.5465C17.8255 100.317 16.8603 100.874 15.8035 101.166L13.9445 101.703C13.8145 101.74 13.6845 101.759 13.5583 101.759ZM18.9495 47.8535C12.9528 58.9004 10.3083 71.7929 11.4764 84.4691C11.9142 89.2954 12.9095 94.0542 14.4423 98.6497L15.0495 98.4745C15.6575 98.3112 16.2131 97.9927 16.6622 97.5501C17.1113 97.1075 17.4386 96.5558 17.6124 95.9486C17.8999 94.9858 18.3943 94.0981 19.061 93.3481C19.9858 92.416 21.0444 91.7878 22.1735 91.4783L25.8321 90.494C27.3034 90.1183 28.5912 89.2245 29.461 87.9756L22.9127 56.5926C22.8811 56.354 22.8663 56.2906 22.8533 56.2254L22.8161 56.0296C22.4614 54.1077 22.8737 52.786 24.0455 52.1224C24.1941 52.0441 24.3334 51.9565 24.4671 51.8558C23.9675 51.4736 23.117 50.9722 22.5468 50.6404C21.05 49.7586 19.633 48.9253 18.9495 47.8535Z" fill="#1A1B25"/>
<path d="M31.2253 54.0331C28.0957 54.0331 25.0943 55.2811 22.8813 57.5024C20.6683 59.7237 19.425 62.7365 19.425 65.878C19.425 74.0094 31.2253 88.602 31.2253 88.602C31.2253 88.602 43.0256 74.0094 43.0256 65.878C43.0259 64.3224 42.7208 62.782 42.1279 61.3448C41.5349 59.9077 40.6657 58.6018 39.5699 57.5019C38.4741 56.4019 37.1732 55.5294 35.7414 54.9343C34.3096 54.3391 32.775 54.0329 31.2253 54.0331Z" fill="#1A1B25"/>
<path d="M57.0842 92.1326C55.5346 92.1326 54.0001 92.439 52.5684 93.0343C51.1368 93.6295 49.8359 94.502 48.7402 95.6019C47.6444 96.7018 46.7752 98.0075 46.1822 99.4446C45.5892 100.882 45.2839 102.422 45.2839 103.977C45.2839 112.109 57.0842 126.701 57.0842 126.701C57.0842 126.701 68.8845 112.109 68.8845 103.977C68.8845 100.836 67.6413 97.8232 65.4283 95.6019C63.2153 93.3806 60.2139 92.1326 57.0842 92.1326Z" fill="#1A1B25"/>
<path d="M31.2253 54.0331C28.0957 54.0331 25.0943 55.2811 22.8813 57.5024C20.6683 59.7237 19.425 62.7365 19.425 65.878C19.425 74.0094 31.2253 88.602 31.2253 88.602C31.2253 88.602 43.0256 74.0094 43.0256 65.878C43.0259 64.3224 42.7208 62.782 42.1279 61.3448C41.5349 59.9077 40.6657 58.6018 39.5699 57.5019C38.4741 56.4019 37.1732 55.5294 35.7414 54.9343C34.3096 54.3391 32.775 54.0329 31.2253 54.0331Z" fill="#1A1B25"/>
<path d="M57.0842 92.1326C55.5346 92.1326 54.0001 92.439 52.5684 93.0343C51.1368 93.6295 49.8359 94.502 48.7402 95.6019C47.6444 96.7018 46.7752 98.0075 46.1822 99.4446C45.5892 100.882 45.2839 102.422 45.2839 103.977C45.2839 112.109 57.0842 126.701 57.0842 126.701C57.0842 126.701 68.8845 112.109 68.8845 103.977C68.8845 100.836 67.6413 97.8232 65.4283 95.6019C63.2153 93.3806 60.2139 92.1326 57.0842 92.1326Z" fill="#1A1B25"/>
<path d="M43.02 65.8723C43.02 74.0187 31.2271 88.5963 31.2271 88.5963C31.2271 88.5963 30.8743 88.1676 30.2986 87.4219C33.7343 82.4446 38.1543 75.044 38.1543 70.0667C38.1543 63.5235 32.8614 58.2293 26.3428 58.2293C24.56 58.2293 22.8886 58.6208 21.3843 59.3292C22.4631 57.7007 23.9263 56.3653 25.6435 55.4416C27.3608 54.5179 29.2789 54.0347 31.2271 54.035C37.7457 54.035 43.02 59.3292 43.02 65.8723Z" fill="#1A1B25"/>
<path d="M68.8899 103.976C68.8899 112.103 57.0785 126.7 57.0785 126.7C57.0785 126.7 56.7442 126.271 56.1499 125.525C59.5856 120.548 64.0056 113.147 64.0056 108.17C64.0056 101.627 58.7313 96.3326 52.2127 96.3326C50.4485 96.3326 48.7585 96.7241 47.2356 97.4511C48.3105 95.8175 49.7723 94.477 51.4901 93.5498C53.2079 92.6226 55.128 92.1376 57.0785 92.1382C63.597 92.1382 68.8899 97.4324 68.8899 103.976Z" fill="#1A1B25"/>
<path d="M57.0841 110.291C60.4042 110.291 63.0957 107.59 63.0957 104.257C63.0957 100.924 60.4042 98.2228 57.0841 98.2228C53.764 98.2228 51.0725 100.924 51.0725 104.257C51.0725 107.59 53.764 110.291 57.0841 110.291Z" fill="#FF8E14"/>
<path d="M57.0841 111.689C53.0021 111.689 49.6797 108.354 49.6797 104.257C49.6797 100.16 53.0021 96.8265 57.0841 96.8265C61.1661 96.8265 64.4885 100.16 64.4885 104.257C64.4885 108.354 61.1661 111.689 57.0841 111.689ZM57.0841 99.6209C54.538 99.6209 52.4654 101.699 52.4654 104.255C52.4654 106.811 54.538 108.891 57.0841 108.891C59.6303 108.891 61.7028 106.811 61.7028 104.255C61.7028 101.699 59.6303 99.6209 57.0841 99.6209Z" fill="#1A1B25"/>
<path d="M30.9727 89.9982C30.7654 89.998 30.5607 89.9516 30.3734 89.8623C30.1862 89.773 30.021 89.643 29.89 89.4818C29.396 88.8703 17.7795 74.4064 17.7795 65.876C17.7795 58.5742 23.6983 52.6331 30.9727 52.6331C38.2471 52.6331 44.1658 58.576 44.1658 65.876C44.1658 74.4064 32.5475 88.8703 32.0535 89.4818C31.9229 89.6431 31.7582 89.7731 31.5712 89.8625C31.3842 89.9518 31.1798 89.9981 30.9727 89.9982ZM30.9727 55.4275C28.2135 55.4309 25.5683 56.5327 23.6173 58.4911C21.6663 60.4495 20.5687 63.1046 20.5653 65.8742C20.5653 72.0166 28.1108 82.5509 30.9727 86.3239C33.8345 82.5527 41.3801 72.0166 41.3801 65.8742C41.3767 63.1046 40.2791 60.4495 38.328 58.4911C36.377 56.5327 33.7318 55.4309 30.9727 55.4275Z" fill="#1A1B25"/>
<path d="M30.9727 89.9982C30.7654 89.998 30.5607 89.9516 30.3734 89.8623C30.1862 89.773 30.021 89.643 29.89 89.4818C29.396 88.8703 17.7795 74.4064 17.7795 65.876C17.7795 58.5742 23.6983 52.6331 30.9727 52.6331C38.2471 52.6331 44.1658 58.576 44.1658 65.876C44.1658 74.4064 32.5475 88.8703 32.0535 89.4818C31.9229 89.6431 31.7582 89.7731 31.5712 89.8625C31.3842 89.9518 31.1798 89.9981 30.9727 89.9982ZM30.9727 55.4275C28.2135 55.4309 25.5683 56.5327 23.6173 58.4911C21.6663 60.4495 20.5687 63.1046 20.5653 65.8742C20.5653 72.0166 28.1108 82.5509 30.9727 86.3239C33.8345 82.5527 41.3801 72.0166 41.3801 65.8742C41.3767 63.1046 40.2791 60.4495 38.328 58.4911C36.377 56.5327 33.7319 55.4309 30.9727 55.4275ZM56.8297 128.098C56.6224 128.098 56.4177 128.051 56.2304 127.962C56.0432 127.873 55.878 127.743 55.747 127.581C55.253 126.97 43.6365 112.508 43.6365 103.977C43.6365 96.6756 49.5553 90.7345 56.8297 90.7345C64.1041 90.7345 70.0228 96.6774 70.0228 103.977C70.0228 112.508 58.4045 126.97 57.9105 127.581C57.78 127.743 57.6152 127.873 57.4282 127.962C57.2412 128.051 57.0368 128.098 56.8297 128.098ZM56.8297 93.5289C54.0705 93.5323 51.4254 94.6341 49.4743 96.5924C47.5233 98.5508 46.4257 101.206 46.4223 103.976C46.4223 110.118 53.9678 120.65 56.8297 124.423C59.6915 120.652 67.2371 110.118 67.2371 103.976C67.2342 101.206 66.1367 98.5504 64.1856 96.5919C62.2345 94.6334 59.589 93.5318 56.8297 93.5289Z" fill="#1A1B25"/>
<path d="M31.2252 72.19C34.5453 72.19 37.2368 69.4883 37.2368 66.1557C37.2368 62.8231 34.5453 60.1215 31.2252 60.1215C27.9051 60.1215 25.2136 62.8231 25.2136 66.1557C25.2136 69.4883 27.9051 72.19 31.2252 72.19Z" fill="#FF8E14"/>
<path d="M31.2252 73.5881C27.1432 73.5881 23.8208 70.255 23.8208 66.1575C23.8208 62.0601 27.1432 58.7252 31.2252 58.7252C35.3072 58.7252 38.6297 62.0601 38.6297 66.1575C38.6297 70.255 35.3072 73.5881 31.2252 73.5881ZM31.2252 61.5214C28.6791 61.5214 26.6065 63.6018 26.6065 66.1575C26.6065 68.7133 28.6791 70.7918 31.2252 70.7918C33.7714 70.7918 35.8439 68.7133 35.8439 66.1575C35.8439 63.6018 33.7714 61.5214 31.2252 61.5214ZM134.429 103.834C129.578 103.834 125.061 101.299 121.59 96.5861C120.352 94.8973 118.603 93.6561 116.604 93.0479C108.854 90.6655 105.946 82.206 105.827 81.8444C103.557 72.6541 117.042 65.1957 118.524 64.409C122.365 61.4562 123.081 57.9683 120.717 53.7498C120.309 53.0471 119.814 52.3994 119.243 51.8222C117.614 50.1961 115.46 49.2076 113.17 49.0353C109.686 48.7427 106.324 50.3272 104.38 53.1831C97.5345 63.2141 90.5498 62.3752 86.9934 60.9883C84.6812 60.0748 81.9549 60.2128 79.5109 61.3592C74.7919 63.6316 70.8771 64.0772 70.7118 64.0958C69.8163 64.2741 68.8993 64.3175 67.9911 64.2244C67.8092 64.2065 67.6325 64.1527 67.4714 64.0661C67.3102 63.9795 67.1677 63.8618 67.0519 63.7198C66.9361 63.5778 66.8494 63.4142 66.7967 63.2385C66.7441 63.0628 66.7265 62.8784 66.7449 62.6958C66.7606 62.5121 66.8129 62.3334 66.8986 62.1703C66.9842 62.0072 67.1016 61.863 67.2437 61.7463C67.3859 61.6295 67.5499 61.5425 67.7261 61.4904C67.9023 61.4383 68.0872 61.4223 68.2697 61.4431C68.9011 61.5046 69.5845 61.4673 70.3014 61.3313C70.4481 61.3089 74.0435 60.8913 78.3187 58.8333C81.4609 57.3532 84.9914 57.1891 88.0111 58.3822C92.8861 60.2892 97.7537 57.9478 102.083 51.6041C103.33 49.789 105.034 48.3374 107.021 47.3968C109.008 46.4562 111.208 46.06 113.396 46.2484C116.352 46.4756 119.13 47.7563 121.228 49.8593C122.015 50.672 122.656 51.5128 123.145 52.374C126.203 57.8285 125.126 62.9177 120.117 66.7093C120.055 66.7562 119.988 66.7979 119.919 66.8342C116.24 68.745 107.017 75.029 108.505 81.0652C108.51 81.0652 111.079 88.4211 117.423 90.3729C119.995 91.1575 122.247 92.7556 123.841 94.9289C125.982 97.8332 129.529 101.245 134.709 101.032C139.03 89.5098 139.952 76.9817 137.364 64.9472C134.776 52.9127 128.787 41.8819 120.116 33.1751C119.385 32.4322 118.632 31.7123 117.857 31.0164C117.304 30.5113 116.762 30.034 116.204 29.5587L116.128 29.5195L87.4057 16.0361C85.6323 15.694 83.8478 15.413 82.0552 15.1935C72.1344 14.0527 62.3769 15.0258 53.8415 18.0159C46.8147 20.5007 40.2773 24.2052 34.5272 28.9603C32.9069 30.2878 31.353 31.6951 29.8714 33.177C29.1545 33.9227 28.4469 34.6702 27.7487 35.4326L29.9921 38.5234C30.8641 39.772 32.1678 40.6503 33.6494 40.9873C35.131 41.3243 36.6845 41.0959 38.0075 40.3465C38.6835 39.9756 39.2592 39.5002 39.7347 38.9223L40.2138 38.3985C42.0839 36.5381 44.5558 35.5855 47.0629 35.7141L49.6072 35.8446C50.5944 35.8979 51.58 35.7138 52.4821 35.3077L60.2654 31.7379C61.8791 31.0047 63.6724 30.7659 65.4207 31.0514C67.169 31.3369 68.7945 32.1341 70.0934 33.3429C76.5729 39.3921 75.1411 43.3273 73.7111 45.1355C73.5031 45.3574 71.0684 47.7714 66.5648 49.5908C65.6228 49.9674 64.7895 50.5742 64.1405 51.3562C63.4915 52.1382 63.0475 53.0705 62.8487 54.0685C62.4159 56.1266 66.8532 60.2006 68.222 61.6117C68.3496 61.7433 68.4502 61.8988 68.518 62.0695C68.5858 62.2401 68.6194 62.4224 68.617 62.6061C68.6146 62.7897 68.5762 62.9711 68.5039 63.1399C68.4317 63.3086 68.327 63.4614 68.1959 63.5896C68.0649 63.7178 67.9099 63.8187 67.7399 63.8868C67.57 63.9548 67.3883 63.9886 67.2053 63.9862C67.0224 63.9837 66.8417 63.9452 66.6736 63.8727C66.5054 63.8001 66.3532 63.6951 66.2255 63.5635C62.0706 60.4319 59.4909 56.4975 60.1205 53.4925C60.7482 50.5024 62.7168 48.1349 65.5211 46.9997C69.4619 45.4077 71.6125 43.2993 71.6348 43.277C73.3675 41.0717 70.7304 37.7628 68.1954 35.3935C67.2981 34.5609 66.1766 34.0117 64.9707 33.8142C63.7647 33.6166 62.5275 33.7795 61.4131 34.2824L53.6224 37.8579C52.2759 38.4544 50.8367 38.7117 49.4475 38.6371L46.9162 38.5066C46.0521 38.4668 45.1891 38.6078 44.3821 38.9207C43.5752 39.2336 42.8419 39.7115 42.2288 40.3241L41.8425 40.7454C41.15 41.5806 40.3054 42.2759 39.3539 42.7941C37.4347 43.8794 35.1824 44.2106 33.0337 43.7236C30.8849 43.2366 28.9929 41.966 27.7245 40.1582L24.8385 36.182C24.6642 35.9436 24.5705 35.6556 24.5711 35.3599C24.5711 35.015 24.6974 34.6478 24.9258 34.3906C25.8889 33.3151 26.8728 32.2586 27.8768 31.2215C29.3811 29.7097 31.0154 28.2295 32.7518 26.8035C38.7535 21.8408 45.5769 17.9749 52.9111 15.3818C61.9739 12.2109 71.8855 11.2136 82.3765 12.4215C84.2968 12.6583 86.0685 12.9379 87.7994 13.279C87.9535 13.294 88.0891 13.3238 88.2042 13.3555C88.2831 13.3773 88.3601 13.4054 88.4345 13.4394L117.592 27.1409C117.69 27.1893 117.781 27.2527 117.865 27.3236C118.491 27.853 119.096 28.3861 119.701 28.9379C120.509 29.6537 121.291 30.4199 122.073 31.2047C131.195 40.3632 137.47 51.9838 140.136 64.6546C142.802 77.3253 141.744 90.5005 137.092 102.579C137.066 102.705 137.021 102.826 136.96 102.939C136.861 103.166 136.703 103.363 136.503 103.508C136.302 103.654 136.067 103.743 135.821 103.767C135.359 103.81 134.893 103.834 134.429 103.834Z" fill="#1A1B25"/>
<path d="M102.896 4.09436C98.6622 4.09436 94.6017 5.78262 91.6079 8.78775C88.614 11.7929 86.9321 15.8687 86.9321 20.1186C86.9321 31.119 102.896 52.7953 102.896 52.7953C102.896 52.7953 118.86 31.1208 118.86 20.1186C118.86 18.0143 118.447 15.9305 117.645 13.9864C116.843 12.0422 115.667 10.2757 114.184 8.78775C112.702 7.29976 110.942 6.11943 109.005 5.31413C107.068 4.50884 104.993 4.09436 102.896 4.09436Z" fill="#1A1B25"/>
<path d="M102.896 4.09436C98.6622 4.09436 94.6017 5.78262 91.6079 8.78775C88.614 11.7929 86.9321 15.8687 86.9321 20.1186C86.9321 31.119 102.896 52.7953 102.896 52.7953C102.896 52.7953 118.86 31.1208 118.86 20.1186C118.86 18.0143 118.447 15.9305 117.645 13.9864C116.843 12.0422 115.667 10.2757 114.184 8.78775C112.702 7.29976 110.942 6.11943 109.005 5.31413C107.068 4.50884 104.993 4.09436 102.896 4.09436Z" fill="#1A1B25"/>
<path d="M118.866 20.1261C118.866 31.1246 102.894 52.8046 102.894 52.8046C102.894 52.8046 102.523 52.3013 101.891 51.3879C106.608 44.2109 113.981 31.7957 113.981 24.3204C113.981 15.4657 106.831 8.28872 98.0285 8.28872C95.2056 8.28872 92.5685 9.01573 90.2842 10.302C91.7722 8.36716 93.683 6.80122 95.8694 5.72494C98.0557 4.64866 100.459 4.0908 102.894 4.09438C107.13 4.09438 111.192 5.78343 114.188 8.78995C117.183 11.7965 118.866 15.8742 118.866 20.1261Z" fill="#1A1B25"/>
<path d="M102.644 54.1897C102.426 54.1896 102.211 54.1382 102.017 54.0398C101.822 53.9414 101.653 53.7987 101.524 53.623C100.861 52.7226 85.2849 31.4471 85.2849 20.1149C85.2849 10.5089 93.0719 2.69067 102.644 2.69067C112.213 2.69067 120 10.5071 120 20.1149C120 31.4471 104.426 52.7208 103.763 53.623C103.634 53.7987 103.465 53.9414 103.271 54.0398C103.076 54.1382 102.861 54.1896 102.644 54.1897ZM102.644 5.48876C94.6078 5.48876 88.0706 12.0506 88.0706 20.1168C88.0706 28.8727 99.0519 45.2641 102.644 50.3887C106.233 45.2641 117.215 28.8727 117.215 20.1168C117.215 12.0506 110.678 5.48876 102.644 5.48876Z" fill="#1A1B25"/>
<path d="M102.634 54.1841C102.416 54.1841 102.202 54.1329 102.007 54.0344C101.813 53.936 101.644 53.7932 101.514 53.6174C100.851 52.717 85.2886 31.4527 85.2886 20.1056C85.2886 18.0718 85.6359 16.0809 86.3193 14.1869C87.5395 10.8251 89.7584 7.92034 92.6761 5.86506C95.5939 3.80977 99.0698 2.70304 102.634 2.6944C111.259 2.6944 118.654 9.14436 119.837 17.6952C119.888 18.0626 119.791 18.4352 119.569 18.7311C119.346 19.0271 119.015 19.2221 118.649 19.2732C118.283 19.3244 117.912 19.2275 117.617 19.004C117.323 18.7804 117.128 18.4484 117.077 18.0811C116.086 10.9023 109.875 5.49062 102.634 5.49062C99.6418 5.49809 96.7238 6.42738 94.2743 8.15294C91.8249 9.8785 89.9622 12.3172 88.9379 15.1395C88.3637 16.7316 88.0714 18.4123 88.0743 20.1056C88.0743 28.8745 99.0463 45.2604 102.634 50.3831C105.327 46.543 112.18 36.3666 115.447 27.771C116.145 25.9161 116.643 24.2421 116.921 22.8011C116.995 22.4388 117.208 22.1202 117.514 21.9135C117.819 21.7068 118.193 21.6286 118.556 21.6957C119.311 21.8448 119.804 22.5793 119.657 23.3361C119.341 24.9542 118.816 26.7289 118.05 28.7627C113.814 39.9103 104.161 53.06 103.752 53.6155C103.624 53.7922 103.456 53.9358 103.261 54.0346C103.067 54.1334 102.852 54.1846 102.634 54.1841Z" fill="#1A1B25"/>
<path d="M109.145 26.7944C112.606 23.3204 112.606 17.6879 109.145 14.2139C105.684 10.7399 100.073 10.7399 96.6118 14.2139C93.1509 17.6879 93.1509 23.3204 96.6118 26.7944C100.073 30.2684 105.684 30.2684 109.145 26.7944Z" fill="#FF8E14"/>
<path d="M102.896 30.7871C97.241 30.7871 92.6409 26.1696 92.6409 20.4952C92.6409 14.8207 97.241 10.2032 102.896 10.2032C108.549 10.2032 113.149 14.8207 113.149 20.4952C113.149 26.1696 108.549 30.7871 102.896 30.7871ZM102.896 12.9975C98.7769 12.9975 95.4266 16.3605 95.4266 20.4933C95.4266 24.6261 98.7769 27.9891 102.896 27.9891C107.013 27.9891 110.364 24.6261 110.364 20.4933C110.364 16.3605 107.013 12.9975 102.896 12.9975Z" fill="#1A1B25"/>
</svg>
