<svg width="150" height="150" viewBox="0 0 150 150" fill="none" xmlns="http://www.w3.org/2000/svg">
<path d="M124.666 16.3695L116.192 20.7957C104.858 12.5062 91.1869 8.00684 76.9819 8.00684C59.2209 8.00684 42.523 14.9232 29.9642 27.4822C17.4054 40.041 10.4888 56.739 10.4888 74.5C10.4888 92.261 17.4054 108.959 29.9642 121.518C42.5232 134.077 59.2212 140.993 76.9819 140.993C81.4952 140.993 85.1538 137.334 85.1538 132.821C85.1538 128.308 81.4949 124.649 76.9819 124.649C49.3296 124.649 26.8327 102.153 26.8327 74.5003C26.8327 46.8479 49.3296 24.3508 76.9819 24.3508C84.8284 24.3508 92.4587 26.1703 99.3386 29.5996L93.6702 32.5603C87.7174 35.6699 87.3632 44.0576 93.0329 47.6576L122.549 66.4009C128.218 70.0007 135.658 66.1144 135.942 59.4051L137.421 24.4709C137.706 17.7609 130.619 13.2597 124.666 16.3695Z" fill="#FF8E14"/>
<path d="M119.81 23.2593L132.87 16.4372C130.463 15.1252 127.442 14.9194 124.666 16.3692L116.193 20.7955C117.425 21.5769 118.631 22.3986 119.81 23.2593ZM38.2979 121.518C25.7388 108.959 18.8225 92.261 18.8225 74.5C18.8225 56.739 25.7388 40.041 38.2979 27.4822C49.8725 15.9079 64.9634 9.13093 81.161 8.13875C79.7697 8.05143 78.376 8.00744 76.9819 8.00684C59.2209 8.00684 42.523 14.9232 29.9642 27.4822C17.4054 40.041 10.4888 56.739 10.4888 74.5C10.4888 92.261 17.4054 108.959 29.9642 121.518C42.5232 134.077 59.2212 140.993 76.9819 140.993C77.7062 140.993 78.4272 140.897 79.126 140.707C63.7018 139.292 49.3863 132.606 38.2979 121.518ZM130.883 66.4012L101.367 47.6579C95.6972 44.0576 96.0512 35.6701 102.004 32.5606L103.517 31.7702C105.228 30.8765 105.103 28.3685 103.301 27.6762C97.6189 25.4941 91.535 24.3508 85.3154 24.3508C83.9119 24.3508 82.5227 24.4118 81.1481 24.5252C87.5205 25.0524 93.6831 26.7809 99.3383 29.5996L93.67 32.5603C87.7172 35.6699 87.3629 44.0576 93.0326 47.6576L122.549 66.4009C125.429 68.2298 128.765 68.1236 131.389 66.699C131.217 66.6051 131.048 66.5058 130.883 66.4012Z" fill="#FF8E14"/>
<path d="M92.9759 102.193L92.9401 102.193C90.6836 102.173 88.8699 100.329 88.8895 98.072C88.9074 95.982 88.9258 93.664 88.9435 91.2475H74.5111C73.8006 91.2475 73.1024 91.0622 72.4854 90.71C71.8683 90.3578 71.3538 89.8507 70.9926 89.2389C70.6313 88.6271 70.4359 87.9317 70.4255 87.2213C70.4151 86.5108 70.5902 85.81 70.9334 85.1879C73.8676 79.869 83.605 62.3145 85.709 59.7332C87.6251 57.382 90.23 56.4318 92.6773 57.1888C95.1446 57.953 96.8962 60.3328 97.1397 63.2518C97.2502 64.5755 97.2226 74.1556 97.1705 83.0754H97.7998C100.056 83.0754 101.886 84.9048 101.886 87.1613C101.886 89.4178 100.056 91.2472 97.7998 91.2472H97.1159C97.0929 94.3527 97.0717 96.8575 97.0605 98.1421C97.0418 100.387 95.2158 102.193 92.9759 102.193ZM81.454 83.0756H88.9973C89.0259 78.1024 89.0457 73.3074 89.046 69.7438C87.0295 73.1841 84.2759 78.0275 81.454 83.0756ZM54.1867 103.465C47.0713 103.465 46.5393 103.288 45.9841 103.103C44.6344 102.653 43.6251 101.631 43.2155 100.299C42.5163 98.026 43.5652 96.6528 45.8634 93.6436C47.7472 91.1771 51.2535 86.5857 57.1293 78.1904C58.8316 75.7579 59.9295 73.59 60.3951 71.7421L60.5125 70.8235C60.3945 67.9476 58.0179 65.6437 55.1133 65.6437C52.5363 65.6437 50.3066 67.4739 49.8113 69.9953C49.3765 72.2095 47.2283 73.6521 45.0147 73.2172C42.8002 72.7824 41.3577 70.6348 41.7928 68.4206C43.0389 62.0766 48.6409 57.4719 55.1136 57.4719C62.5991 57.4719 68.6892 63.562 68.6892 71.0475C68.6699 71.6474 68.508 72.8129 68.4002 73.4048C67.7254 76.3155 66.1857 79.5021 63.8246 82.876C59.8532 88.5503 56.9425 92.5203 54.8733 95.2831C58.2081 95.278 62.2847 95.2467 66.1236 95.1985C68.371 95.1766 70.2323 96.9766 70.2607 99.2328C70.2888 101.489 68.4826 103.341 66.2264 103.37C60.8936 103.437 57.0185 103.465 54.1867 103.465Z" fill="#F0386B"/>
<path d="M75.2196 89.2388C74.8584 88.627 74.663 87.9315 74.6527 87.2212C74.6423 86.5108 74.8173 85.81 75.1605 85.1879C78.0948 79.869 87.8322 62.3145 89.9362 59.7332C90.8636 58.5954 91.9526 57.789 93.1067 57.3421C92.966 57.2859 92.8231 57.234 92.677 57.1888C90.2297 56.4318 87.6248 57.382 85.7087 59.7332C83.6047 62.3145 73.8673 79.869 70.933 85.1879C70.5899 85.81 70.4149 86.5108 70.4254 87.2212C70.4358 87.9316 70.6313 88.627 70.9925 89.2388C71.3537 89.8506 71.8682 90.3576 72.4852 90.7099C73.1022 91.0621 73.8004 91.2474 74.5108 91.2475H78.738C78.0276 91.2474 77.3294 91.0621 76.7124 90.7098C76.0954 90.3576 75.5809 89.8505 75.2196 89.2388ZM93.1166 98.072C93.1345 95.982 93.153 93.664 93.1707 91.2475H88.9435C88.9258 93.664 88.9073 95.982 88.8894 98.072C88.8696 100.329 90.6835 102.174 92.94 102.193L92.9759 102.193C93.7494 102.193 94.4708 101.974 95.0884 101.6C93.8971 100.877 93.1035 99.5665 93.1166 98.072ZM47.9144 72.7C46.489 71.8365 45.6798 70.1511 46.0196 68.4209C47.1282 62.7763 51.6864 58.5117 57.2368 57.6394C56.5344 57.5283 55.8244 57.4724 55.1133 57.4721C48.6406 57.4721 43.0386 62.0769 41.7924 68.4209C41.3576 70.6351 42.7999 72.7827 45.0143 73.2175C46.0531 73.4217 47.075 73.2084 47.9144 72.7ZM50.2115 103.103C48.8619 102.653 47.8526 101.631 47.4429 100.299C46.7437 98.026 47.7926 96.6528 50.0908 93.6436C51.9746 91.1771 55.4809 86.5857 61.3567 78.1904C63.059 75.7579 64.1569 73.59 64.6225 71.7421L64.7399 70.8235C64.6219 67.9476 62.2453 65.6437 59.3407 65.6437C58.5963 65.6437 57.883 65.8008 57.2298 66.0785C59.0948 66.8759 60.4252 68.6912 60.5127 70.8232L60.3953 71.7418C59.9297 73.5897 58.8318 75.7579 57.1295 78.1902C51.2537 86.5854 47.7474 91.1765 45.8636 93.6434C43.5657 96.6523 42.5168 98.0257 43.2157 100.298C43.6253 101.631 44.6347 102.652 45.9843 103.103C46.5393 103.287 47.0715 103.465 54.1869 103.465C54.8821 103.465 55.6409 103.463 56.468 103.46C51.1943 103.43 50.7108 103.269 50.2115 103.103Z" fill="#F0386B"/>
<path d="M122.434 140.777C121.893 140.777 121.344 140.668 120.817 140.436C118.784 139.542 117.86 137.168 118.754 135.135L132.324 104.263H118.4C116.178 104.263 114.377 102.462 114.377 100.241C114.377 98.0188 116.178 96.2178 118.4 96.2178H138.487C139.155 96.2178 139.814 96.3847 140.402 96.7031C140.99 97.0216 141.489 97.4817 141.855 98.0417C142.221 98.6018 142.441 99.2442 142.496 99.9108C142.551 100.577 142.438 101.247 142.169 101.859L126.119 138.372C125.456 139.88 123.981 140.777 122.434 140.777Z" fill="#F0386B"/>
<path d="M122.144 104.263H118.4C116.177 104.263 114.377 102.464 114.377 100.241C114.377 98.0199 116.177 96.2178 118.4 96.2178H122.144C119.923 96.2178 118.121 98.0199 118.121 100.241C118.121 102.464 119.923 104.263 122.144 104.263ZM124.308 140.313C123.73 140.618 123.087 140.778 122.434 140.779C121.892 140.779 121.342 140.669 120.816 140.436C118.784 139.543 117.858 137.17 118.751 135.137L132.321 104.263H136.068L122.498 135.137C121.643 137.084 122.452 139.342 124.308 140.313Z" fill="#F0386B"/>
<path d="M76.9808 122.643C50.4349 122.643 28.8382 101.046 28.8382 74.5C28.8382 47.9541 50.4349 26.3573 76.9808 26.3573C83.0474 26.3573 89.1101 27.5197 94.7317 29.7417L92.7404 30.7809C89.3017 32.5777 87.1515 35.965 86.9885 39.8419C86.8256 43.7175 88.6831 47.2726 91.9572 49.3509L121.473 68.0944C124.748 70.1743 128.756 70.3442 132.194 68.5485C135.632 66.7528 137.783 63.3666 137.947 59.4907L139.426 24.5555C139.59 20.6791 137.733 17.123 134.459 15.0431C131.184 12.9632 127.176 12.7938 123.737 14.5898L116.358 18.4435C104.789 10.2978 91.2029 6 76.9808 6C70.175 6 63.4598 6.9887 57.0211 8.93854C56.5121 9.09317 56.0854 9.44355 55.8346 9.91269C55.5838 10.3818 55.5296 10.9313 55.6838 11.4404C55.838 11.9496 56.188 12.3766 56.6569 12.6278C57.1258 12.879 57.6753 12.9337 58.1845 12.7799C64.2455 10.9443 70.5694 10.0137 76.9808 10.0137C90.7646 10.0137 103.914 14.3016 115.007 22.4143C115.309 22.6355 115.668 22.7676 116.041 22.7957C116.415 22.8238 116.789 22.7467 117.12 22.5733L125.595 18.1475C127.748 17.0231 130.257 17.1294 132.306 18.4311C134.356 19.7332 135.519 21.9594 135.416 24.3858L133.937 59.3211C133.834 61.7472 132.488 63.8667 130.335 64.9908C128.184 66.1146 125.675 66.0084 123.625 64.7061L94.1082 45.9623C92.0589 44.6613 90.8962 42.4364 90.9982 40.0105C91.1004 37.5833 92.4463 35.463 94.5979 34.3387L100.268 31.3792C100.596 31.208 100.87 30.9494 101.06 30.6322C101.25 30.3149 101.349 29.9513 101.346 29.5814C101.342 29.2115 101.237 28.8498 101.041 28.5361C100.845 28.2224 100.566 27.969 100.235 27.8039C93.0676 24.2314 85.0264 22.3431 76.9806 22.3431C48.2215 22.3431 24.8242 45.7402 24.8242 74.4995C24.8242 103.259 48.2215 126.656 76.9806 126.656C80.3799 126.656 83.1456 129.421 83.1456 132.821C83.1456 136.22 80.3801 138.986 76.9808 138.986C59.7563 138.986 43.563 132.279 31.3836 120.1C19.2027 107.919 12.4945 91.7245 12.4945 74.5C12.4945 57.2755 19.2027 41.0811 31.3834 28.9004C37.0807 23.2055 50.5502 15.9889 57.8053 12.7804C58.0464 12.6738 58.264 12.5207 58.4459 12.33C58.6278 12.1393 58.7704 11.9146 58.8655 11.6688C58.9605 11.423 59.0062 11.1609 59 10.8974C58.9938 10.6339 58.9357 10.3742 58.8291 10.1332C58.7225 9.89217 58.5695 9.67449 58.3788 9.49259C58.188 9.3107 57.9634 9.16815 57.7175 9.07309C57.4717 8.97802 57.2096 8.9323 56.9461 8.93854C56.6826 8.94478 56.423 9.00286 56.1819 9.10945C47.5 11.4404 34.5946 20.0157 28.5454 26.0622C15.6064 39.0012 8.48083 56.2035 8.48083 74.5C8.48083 92.7965 15.6067 109.999 28.5457 122.938C41.4828 135.875 58.6841 143 76.9808 143C82.5936 143 87.1595 138.434 87.1595 132.821C87.1595 127.209 82.5933 122.643 76.9808 122.643Z" fill="#1A1B25"/>
<path d="M99.0675 98.1595C99.0761 97.1411 99.0913 95.3559 99.1084 93.1128C101.841 92.5123 103.892 90.072 103.892 87.1615C103.892 84.2795 101.881 81.8581 99.1876 81.2283C99.2768 64.731 99.174 63.5001 99.1392 63.0851C98.8275 59.3463 96.5239 56.2796 93.2702 55.2719C90.0113 54.2639 86.6042 55.4581 84.1532 58.4654C82.0043 61.1021 72.9634 77.3537 69.1761 84.2185C68.1395 86.0971 68.1732 88.4119 69.2641 90.2593C70.3548 92.1069 72.3653 93.2546 74.5108 93.2546H86.9213C86.9082 94.94 86.8951 96.5562 86.8823 98.0549C86.8732 98.8554 87.0229 99.6497 87.3228 100.392C87.6228 101.134 88.0669 101.809 88.6295 102.379C89.7705 103.539 91.2952 104.186 92.9175 104.2L92.9756 104.2C96.3061 104.2 99.0389 101.49 99.0675 98.1595ZM91.4921 99.5646C91.3001 99.3703 91.1486 99.1398 91.0463 98.8866C90.9439 98.6333 90.8928 98.3623 90.8959 98.0892C90.9139 95.9983 90.9326 93.6798 90.95 91.2619C90.9519 90.9972 90.9013 90.7347 90.8013 90.4895C90.7013 90.2444 90.5538 90.0215 90.3673 89.8336C90.1807 89.6457 89.9589 89.4966 89.7144 89.3948C89.47 89.2931 89.2079 89.2407 88.9431 89.2406H74.5108C74.1494 89.2398 73.7945 89.1451 73.4806 88.966C73.1668 88.7868 72.9049 88.5292 72.7204 88.2185C72.5374 87.9069 72.4385 87.5532 72.4332 87.1919C72.428 86.8306 72.5166 86.4741 72.6905 86.1573C78.6954 75.2728 85.6776 62.9484 87.2644 61.001C88.3614 59.655 89.6768 58.9395 90.9939 58.9395C91.3583 58.9395 91.7233 58.9944 92.0835 59.1057C93.7646 59.6264 94.9645 61.3194 95.1397 63.4183C95.1882 64.0005 95.2559 67.3273 95.1635 83.0636C95.1619 83.3282 95.2127 83.5904 95.3129 83.8353C95.4131 84.0802 95.5608 84.3028 95.7474 84.4903C95.9338 84.6779 96.1556 84.8268 96.3998 84.9284C96.644 85.03 96.9059 85.0822 97.1704 85.0822H97.8C98.9463 85.0822 99.8791 86.015 99.8791 87.1613C99.8791 88.3076 98.9466 89.2404 97.8 89.2404H97.1158C96.5861 89.2403 96.0779 89.4497 95.702 89.8228C95.3261 90.196 95.1129 90.7026 95.109 91.2322C95.0859 94.3367 95.0648 96.8406 95.0538 98.125C95.0442 99.2614 94.1117 100.186 92.9756 100.186V102.193L92.9571 100.186C92.6839 100.185 92.4138 100.129 92.1623 100.022C91.9108 99.9156 91.683 99.76 91.4921 99.5646Z" fill="#1A1B25"/>
<path d="M89.572 67.8071C89.1467 67.6917 88.6952 67.7195 88.2872 67.8861C87.8793 68.0526 87.5374 68.3488 87.3144 68.7289C85.367 72.0514 82.6634 76.7988 79.7021 82.0963C79.5313 82.4018 79.4434 82.7465 79.447 83.0965C79.4507 83.4464 79.5457 83.7893 79.7228 84.0911C79.8999 84.3929 80.1528 84.6432 80.4564 84.8171C80.7601 84.991 81.104 85.0825 81.4539 85.0825H88.9972C89.5275 85.0825 90.0362 84.8726 90.4122 84.4988C90.7882 84.1249 91.001 83.6174 91.0041 83.0872C91.0356 77.6235 91.0525 73.0094 91.0528 69.7438C91.0528 69.3032 90.9078 68.8749 90.6402 68.5248C90.3726 68.1748 89.9972 67.9226 89.572 67.8071ZM87.0019 81.0688H84.8803C85.6209 79.7531 86.337 78.4864 87.0198 77.2847C87.015 78.4827 87.0086 79.7467 87.0019 81.0688ZM70.3542 73.8619C70.5057 73.0621 70.6735 71.8612 70.6957 71.0477C70.6957 62.4555 63.7052 55.4653 55.1133 55.4653C47.684 55.4653 41.2535 60.7513 39.8233 68.0343C39.5097 69.6312 39.8367 71.2546 40.7441 72.6056C41.6514 73.9566 43.0308 74.8733 44.6279 75.1869C47.9253 75.8342 51.1333 73.6788 51.7803 70.3825C52.0912 68.7996 53.4928 67.6508 55.1133 67.6508C55.9644 67.6484 56.7853 67.9665 57.4125 68.5419C58.0397 69.1174 58.4272 69.9079 58.4979 70.7561L58.4203 71.3621C57.9978 72.9505 57.0107 74.8599 55.4849 77.0399C49.6341 85.3996 46.144 89.9693 44.2683 92.4256C41.8754 95.5587 40.2945 97.6287 41.2971 100.888C41.8997 102.848 43.3768 104.349 45.3496 105.006C46.1604 105.277 46.7461 105.472 54.1866 105.472C57.2041 105.472 61.1506 105.441 66.2515 105.377C69.6107 105.334 72.3092 102.567 72.2672 99.2077C72.2249 95.8579 69.4616 93.1583 66.0982 93.192C63.6908 93.2222 61.1967 93.2458 58.8685 93.2602C60.9304 90.4461 63.1098 87.3968 65.4685 84.0269C67.9782 80.4413 69.6222 77.0198 70.3542 73.8619ZM53.267 94.0806C53.0436 94.3788 52.9077 94.7333 52.8744 95.1044C52.8412 95.4755 52.9118 95.8485 53.0786 96.1817C53.2453 96.5149 53.5015 96.7951 53.8185 96.9909C54.1354 97.1867 54.5007 97.2905 54.8732 97.2905H54.8762C58.1578 97.2854 62.2664 97.2546 66.1431 97.2056C67.2932 97.2059 68.2393 98.1154 68.2538 99.2585C68.2682 100.405 67.3472 101.349 66.2009 101.364C61.1169 101.428 57.187 101.459 54.1866 101.459C47.3974 101.459 46.8909 101.29 46.6187 101.199C45.881 100.953 45.3534 100.424 45.1334 99.7088C44.7674 98.5187 45.1492 97.8856 47.4589 94.8609C49.3515 92.3825 52.8744 87.7698 58.7732 79.3416C60.6155 76.7094 61.8158 74.3178 62.3408 72.2326C62.4091 71.8625 62.5196 71.117 62.5174 70.7416C62.4433 68.8292 61.6301 67.0201 60.2491 65.695C58.8681 64.37 57.0269 63.6324 55.113 63.6374C51.5794 63.6374 48.5212 66.1489 47.8416 69.6092C47.6205 70.7341 46.5256 71.4684 45.4007 71.2487C44.8557 71.1417 44.385 70.8289 44.0754 70.3678C43.7658 69.9068 43.6542 69.3529 43.7613 68.8078C44.8227 63.4022 49.5969 59.479 55.1127 59.479C61.4918 59.479 66.6815 64.6689 66.6815 71.0477C66.6692 71.3865 66.5035 72.6152 66.4444 72.9521C65.8279 75.6108 64.3931 78.5627 62.1797 81.7257C58.9164 86.3893 56.0006 90.4306 53.267 94.0806ZM143.534 96.9429C142.415 95.2315 140.528 94.2098 138.486 94.2098H118.399C115.075 94.2098 112.371 96.9153 112.371 100.241C112.371 103.565 115.075 106.27 118.399 106.27H129.25L123.599 119.125C123.493 119.366 123.436 119.626 123.43 119.889C123.425 120.153 123.471 120.415 123.567 120.66C123.662 120.906 123.805 121.13 123.988 121.32C124.17 121.511 124.388 121.663 124.629 121.769C124.871 121.875 125.13 121.933 125.394 121.939C125.657 121.944 125.919 121.898 126.165 121.802C126.411 121.707 126.635 121.564 126.825 121.381C127.016 121.199 127.168 120.981 127.274 120.74L134.161 105.07C134.296 104.765 134.352 104.431 134.325 104.098C134.297 103.766 134.187 103.445 134.005 103.166C133.823 102.886 133.573 102.657 133.28 102.498C132.986 102.339 132.658 102.256 132.324 102.256H118.4C117.289 102.256 116.385 101.352 116.385 100.241C116.385 99.1285 117.289 98.2235 118.4 98.2235H138.487C139.169 98.2235 139.8 98.5663 140.176 99.1402C140.36 99.4205 140.47 99.7424 140.497 100.077C140.524 100.411 140.467 100.746 140.331 101.052L124.282 137.563C124.124 137.922 123.866 138.227 123.537 138.441C123.209 138.655 122.826 138.769 122.434 138.77C122.156 138.769 121.881 138.711 121.626 138.599C120.608 138.152 120.143 136.961 120.59 135.944L127.241 120.66C127.348 120.419 127.406 120.159 127.412 119.895C127.419 119.631 127.373 119.368 127.277 119.122C127.182 118.876 127.039 118.651 126.857 118.46C126.674 118.269 126.456 118.116 126.214 118.01C125.972 117.903 125.712 117.846 125.448 117.84C125.184 117.835 124.921 117.881 124.675 117.978C124.429 118.074 124.205 118.218 124.015 118.401C123.824 118.584 123.672 118.803 123.567 119.045L116.915 134.328C115.578 137.372 116.966 140.936 120.015 142.276C120.778 142.61 121.602 142.783 122.434 142.783C123.605 142.783 124.751 142.442 125.731 141.802C126.712 141.161 127.485 140.25 127.956 139.178L144.005 102.669C144.83 100.796 144.655 98.6551 143.534 96.9429ZM118.992 73.4244C118.756 73.3086 118.498 73.2407 118.235 73.2244C117.972 73.2081 117.709 73.2437 117.459 73.3293C117.21 73.4149 116.98 73.5488 116.783 73.7233C116.585 73.8977 116.424 74.1094 116.308 74.3462L93.1209 121.791C92.8934 122.269 92.8635 122.817 93.0378 123.316C93.212 123.815 93.5762 124.225 94.0513 124.458C94.5265 124.69 95.074 124.725 95.575 124.556C96.076 124.386 96.4899 124.026 96.7268 123.554L119.914 76.1084C120.148 75.6303 120.182 75.0789 120.009 74.5755C119.836 74.0722 119.471 73.6581 118.992 73.4244Z" fill="#1A1B25"/>
</svg>
