<svg width="150" height="150" viewBox="0 0 150 150" fill="none" xmlns="http://www.w3.org/2000/svg">
<g clip-path="url(#clip0_65_120)">
<path d="M57.5 127.5H92.5C98.0228 127.5 102.5 131.977 102.5 137.5H47.5C47.5 131.977 51.9772 127.5 57.5 127.5Z" fill="#F0386B"/>
<path d="M22.5 12.5H127.5C133.023 12.5 137.5 16.9772 137.5 22.5V97.5C137.5 103.023 133.023 107.5 127.5 107.5H22.5C16.9772 107.5 12.5 103.023 12.5 97.5V22.5C12.5 16.9772 16.9772 12.5 22.5 12.5Z" fill="#FF8E14"/>
<path d="M12.5 87.5H137.5V97.5C137.5 103.023 133.023 107.5 127.5 107.5H22.5C16.9772 107.5 12.5 103.023 12.5 97.5V87.5Z" fill="#F0386B"/>
<path d="M7.5 62.5H52.5C55.2616 62.5 57.5 64.7384 57.5 67.5V132.5C57.5 135.262 55.2616 137.5 52.5 137.5H7.5C4.73844 137.5 2.5 135.262 2.5 132.5V67.5C2.5 64.7384 4.73844 62.5 7.5 62.5ZM122.5 77.5H142.5C145.262 77.5 147.5 79.7384 147.5 82.5V132.5C147.5 135.262 145.262 137.5 142.5 137.5H122.5C119.738 137.5 117.5 135.262 117.5 132.5V82.5C117.5 79.7384 119.738 77.5 122.5 77.5Z" fill="#FF8E14"/>
<path d="M117.5 127.5H147.5V132.5C147.5 135.262 145.262 137.5 142.5 137.5H122.5C119.738 137.5 117.5 135.262 117.5 132.5V127.5ZM2.5 127.5H57.5V132.5C57.5 135.262 55.2616 137.5 52.5 137.5H7.5C4.73844 137.5 2.5 135.262 2.5 132.5V127.5ZM67.5 107.5H82.5V127.5H67.5V107.5ZM17.5 105.302C17.0056 105.302 16.5224 105.156 16.1114 104.881C15.7003 104.606 15.38 104.216 15.1908 103.759C15.0016 103.302 14.9521 102.8 15.0485 102.315C15.145 101.83 15.383 101.385 15.7325 101.035L26.3375 90.43C26.7982 89.9531 27.4294 89.6787 28.0923 89.6672C28.7553 89.6558 29.3956 89.9081 29.8725 90.3687C30.1139 90.6019 30.3058 90.8813 30.437 91.1902C30.5681 91.4991 30.6356 91.8313 30.6356 92.1669C30.6356 92.5025 30.5681 92.8346 30.437 93.1436C30.3058 93.4525 30.1139 93.7318 29.8725 93.965L19.2675 104.57C18.7988 105.039 18.163 105.302 17.5 105.302ZM32.5 105.302C32.0056 105.302 31.5224 105.156 31.1114 104.881C30.7003 104.606 30.38 104.216 30.1908 103.759C30.0016 103.302 29.9521 102.8 30.0485 102.315C30.145 101.83 30.383 101.385 30.7325 101.035L41.3375 90.43C41.809 89.9746 42.4405 89.7226 43.096 89.7283C43.7515 89.734 44.3785 89.9969 44.8421 90.4604C45.3056 90.924 45.5685 91.551 45.5742 92.2065C45.5799 92.862 45.3279 93.4935 44.8725 93.965L34.2675 104.57C33.7988 105.039 33.163 105.302 32.5 105.302Z" fill="#F0386B"/>
<path d="M57.5 64.75C57.0056 64.7499 56.5223 64.6032 56.1113 64.3285C55.7003 64.0538 55.3799 63.6634 55.1908 63.2066C55.0016 62.7499 54.9521 62.2473 55.0485 61.7624C55.1449 61.2775 55.3829 60.8321 55.7325 60.4825L80.4825 35.7325C80.954 35.2771 81.5855 35.0251 82.241 35.0308C82.8964 35.0365 83.5235 35.2994 83.987 35.7629C84.4505 36.2265 84.7134 36.8535 84.7191 37.509C84.7248 38.1645 84.4728 38.796 84.0175 39.2675L59.2675 64.0175C59.036 64.2505 58.7606 64.4352 58.4571 64.5609C58.1537 64.6867 57.8284 64.7509 57.5 64.75ZM72.75 64.75C72.2556 64.7499 71.7723 64.6032 71.3613 64.3285C70.9503 64.0538 70.6299 63.6634 70.4408 63.2066C70.2516 62.7499 70.2021 62.2473 70.2985 61.7624C70.3949 61.2775 70.6329 60.8321 70.9825 60.4825L95.7325 35.7325C96.204 35.2771 96.8355 35.0251 97.491 35.0308C98.1465 35.0365 98.7735 35.2994 99.237 35.7629C99.7005 36.2265 99.9634 36.8535 99.9691 37.509C99.9748 38.1645 99.7229 38.796 99.2675 39.2675L74.5175 64.0175C74.0487 64.4864 73.4129 64.7498 72.75 64.75Z" fill="#FF8E14"/>
<path d="M128.965 108.535C128.471 108.535 127.987 108.388 127.576 108.113C127.165 107.839 126.845 107.448 126.656 106.992C126.467 106.535 126.417 106.032 126.514 105.547C126.61 105.063 126.848 104.617 127.198 104.267L134.268 97.1975C134.744 96.7368 135.385 96.4845 136.048 96.496C136.711 96.5075 137.342 96.7818 137.803 97.2587C138.253 97.7248 138.504 98.3476 138.504 98.9956C138.504 99.6437 138.253 100.266 137.803 100.732L130.733 107.802C130.264 108.271 129.628 108.535 128.965 108.535Z" fill="#FF8E14"/>
<path d="M75.05 100C74.7217 100.002 74.3963 99.9386 74.0923 99.8145C73.7884 99.6904 73.5119 99.5076 73.2786 99.2766C72.8074 98.8101 72.5408 98.1755 72.5375 97.5125C72.5342 96.8495 72.7944 96.2123 73.2609 95.7411C73.7274 95.2699 74.362 95.0033 75.025 95H75.05C75.7131 95 76.3489 95.2634 76.8178 95.7322C77.2866 96.2011 77.55 96.837 77.55 97.5C77.55 98.163 77.2866 98.7989 76.8178 99.2678C76.3489 99.7366 75.7131 100 75.05 100Z" fill="#1A1B25"/>
<path d="M80 25H70C69.337 25 68.7011 24.7366 68.2322 24.2678C67.7634 23.7989 67.5 23.163 67.5 22.5C67.5 21.837 67.7634 21.2011 68.2322 20.7322C68.7011 20.2634 69.337 20 70 20H80C80.663 20 81.2989 20.2634 81.7678 20.7322C82.2366 21.2011 82.5 21.837 82.5 22.5C82.5 23.163 82.2366 23.7989 81.7678 24.2678C81.2989 24.7366 80.663 25 80 25Z" fill="#FF8E14"/>
<path d="M142.5 75H140V22.5C139.992 15.6 134.4 10.0081 127.5 10H22.5C15.6 10.0081 10.0081 15.6 10 22.5V60H7.5C3.35781 60 0 63.3578 0 67.5V132.5C0 136.642 3.35781 140 7.5 140H102.5C103.163 140 103.799 139.737 104.268 139.268C104.737 138.799 105 138.163 105 137.5C104.992 130.6 99.4 125.008 92.5 125H85V110H115V132.5C115 136.642 118.358 140 122.5 140H142.5C146.642 140 150 136.642 150 132.5V82.5C150 78.3578 146.642 75 142.5 75ZM55 132.5C55 133.163 54.7366 133.799 54.2678 134.268C53.7989 134.737 53.163 135 52.5 135H7.5C6.83696 135 6.20107 134.737 5.73223 134.268C5.26339 133.799 5 133.163 5 132.5V130H55V132.5ZM55 125H5V67.5C5 66.837 5.26339 66.2011 5.73223 65.7322C6.20107 65.2634 6.83696 65 7.5 65H52.5C53.163 65 53.7989 65.2634 54.2678 65.7322C54.7366 66.2011 55 66.837 55 67.5V125ZM92.5 130C94.0507 130.002 95.5628 130.483 96.8291 131.379C98.0953 132.274 99.0536 133.539 99.5725 135H59.54C59.836 134.199 59.9916 133.354 60 132.5V130H92.5ZM60 125V110H65V125H60ZM70 125V110H80V125H70ZM115 105H60V90H115V105ZM115 82.5V85H60V67.5C59.9915 66.3138 59.6982 65.1469 59.145 64.0975C59.1825 64.0625 59.2325 64.0525 59.2675 64.015L84.0175 39.265C84.4729 38.7935 84.7249 38.162 84.7192 37.5065C84.7135 36.851 84.4506 36.224 83.987 35.7605C83.5235 35.2969 82.8965 35.034 82.241 35.0283C81.5855 35.0226 80.954 35.2746 80.4825 35.73L55.7325 60.48C55.6725 60.5425 55.6475 60.6225 55.595 60.6875C54.6251 60.2376 53.5692 60.0031 52.5 60H15V22.5C15 18.3578 18.3578 15 22.5 15H127.5C131.642 15 135 18.3578 135 22.5V75H122.5C118.358 75 115 78.3578 115 82.5ZM145 132.5C145 133.163 144.737 133.799 144.268 134.268C143.799 134.737 143.163 135 142.5 135H122.5C121.837 135 121.201 134.737 120.732 134.268C120.263 133.799 120 133.163 120 132.5V130H145V132.5ZM145 125H120V82.5C120 81.837 120.263 81.2011 120.732 80.7322C121.201 80.2634 121.837 80 122.5 80H142.5C143.163 80 143.799 80.2634 144.268 80.7322C144.737 81.2011 145 81.837 145 82.5V125Z" fill="#1A1B25"/>
<path d="M29.8725 90.43C29.4037 89.9613 28.7679 89.698 28.105 89.698C27.4421 89.698 26.8063 89.9613 26.3375 90.43L15.7325 101.035C15.2556 101.496 14.9812 102.127 14.9697 102.79C14.9582 103.453 15.2106 104.093 15.6712 104.57C15.9044 104.811 16.1838 105.003 16.4927 105.134C16.8016 105.266 17.1338 105.333 17.4694 105.333C17.805 105.333 18.1371 105.266 18.446 105.134C18.755 105.003 19.0343 104.811 19.2675 104.57L29.8725 93.965C30.3412 93.4962 30.6044 92.8604 30.6044 92.1975C30.6044 91.5346 30.3412 90.8988 29.8725 90.43ZM41.3375 90.43L30.7325 101.035C30.2556 101.496 29.9812 102.127 29.9697 102.79C29.9583 103.453 30.2106 104.093 30.6712 104.57C30.9044 104.811 31.1838 105.003 31.4927 105.134C31.8016 105.266 32.1338 105.333 32.4694 105.333C32.805 105.333 33.1371 105.266 33.446 105.134C33.755 105.003 34.0343 104.811 34.2675 104.57L44.8725 93.965C45.3279 93.4935 45.5799 92.862 45.5742 92.2065C45.5685 91.551 45.3056 90.924 44.842 90.4604C44.3785 89.9969 43.7515 89.734 43.096 89.7283C42.4405 89.7226 41.809 89.9746 41.3375 90.43ZM95.7325 35.7325L70.9825 60.4825C70.7437 60.7131 70.5533 60.989 70.4222 61.294C70.2912 61.599 70.2222 61.927 70.2194 62.259C70.2165 62.5909 70.2797 62.9201 70.4054 63.2274C70.5311 63.5346 70.7168 63.8138 70.9515 64.0485C71.1862 64.2832 71.4654 64.4689 71.7726 64.5946C72.0798 64.7203 72.409 64.7835 72.741 64.7806C73.0729 64.7777 73.401 64.7088 73.706 64.5778C74.011 64.4467 74.2869 64.2563 74.5175 64.0175L99.2675 39.2675C99.7229 38.796 99.9749 38.1645 99.9692 37.509C99.9635 36.8535 99.7006 36.2265 99.237 35.763C98.7735 35.2994 98.1465 35.0365 97.491 35.0308C96.8355 35.0251 96.204 35.2771 95.7325 35.7325ZM134.267 97.1975L127.197 104.268C126.721 104.728 126.446 105.359 126.435 106.022C126.423 106.685 126.676 107.326 127.136 107.802C127.369 108.044 127.649 108.236 127.958 108.367C128.267 108.498 128.599 108.566 128.934 108.566C129.27 108.566 129.602 108.498 129.911 108.367C130.22 108.236 130.499 108.044 130.732 107.802L137.802 100.732C138.263 100.256 138.515 99.6152 138.504 98.9523C138.492 98.2894 138.218 97.6581 137.741 97.1975C137.275 96.7473 136.652 96.4956 136.004 96.4956C135.356 96.4956 134.734 96.7473 134.267 97.1975ZM75.05 100C75.713 100 76.3489 99.7366 76.8177 99.2678C77.2866 98.7989 77.55 98.163 77.55 97.5C77.55 96.837 77.2866 96.2011 76.8177 95.7322C76.3489 95.2634 75.713 95 75.05 95H75.025C74.3619 95.0033 73.7274 95.2699 73.2609 95.7411C72.7944 96.2123 72.5342 96.8495 72.5375 97.5125C72.5408 98.1755 72.8074 98.8101 73.2786 99.2766C73.7497 99.7431 74.3869 100.003 75.05 100ZM80 20H70C69.3369 20 68.7011 20.2634 68.2322 20.7322C67.7634 21.2011 67.5 21.837 67.5 22.5C67.5 23.163 67.7634 23.7989 68.2322 24.2678C68.7011 24.7366 69.3369 25 70 25H80C80.663 25 81.2989 24.7366 81.7678 24.2678C82.2366 23.7989 82.5 23.163 82.5 22.5C82.5 21.837 82.2366 21.2011 81.7678 20.7322C81.2989 20.2634 80.663 20 80 20Z" fill="#1A1B25"/>
</g>
<defs>
<clipPath id="clip0_65_120">
<rect width="150" height="150" fill="white"/>
</clipPath>
</defs>
</svg>
