<svg width="150" height="150" viewBox="0 0 150 150" fill="none" xmlns="http://www.w3.org/2000/svg">
<path d="M21.3 83.9V17.2001C21.3 15.3701 22.027 13.615 23.321 12.321C24.615 11.027 26.3701 10.3001 28.2001 10.3001H104.491C105.096 10.2996 105.696 10.4186 106.255 10.6503C106.814 10.8819 107.322 11.2217 107.75 11.6502L125.75 29.65C126.178 30.0776 126.518 30.5857 126.75 31.1449C126.982 31.7042 127.101 32.3037 127.1 32.909V136.8C127.1 138.63 126.373 140.385 125.079 141.679C123.785 142.973 122.03 143.7 120.2 143.7H28.2001C26.3701 143.7 24.615 142.973 23.321 141.679C22.027 140.385 21.3 138.63 21.3 136.8V83.9Z" fill="#FF8E14"/>
<path d="M78.8002 83.9H5.20015C3.92989 83.9 2.90015 84.9298 2.90015 86.2V127.6C2.90015 128.87 3.92989 129.9 5.20015 129.9H78.8002C80.0704 129.9 81.1002 128.87 81.1002 127.6V86.2C81.1002 84.9298 80.0704 83.9 78.8002 83.9Z" fill="#F0386B"/>
<path d="M126.686 31H115.324C114.151 31.0027 112.99 30.7738 111.906 30.3263C110.822 29.8787 109.837 29.2215 109.008 28.3923C108.179 27.5631 107.521 26.5782 107.074 25.4943C106.626 24.4103 106.397 23.2487 106.4 22.076V10.714C106.906 10.944 107.366 11.266 107.757 11.657L125.743 29.643C126.134 30.034 126.456 30.494 126.686 31Z" fill="#FF8E14"/>
<path d="M0.600098 86.2V127.6C0.600098 128.82 1.08474 129.99 1.94741 130.853C2.81007 131.715 3.9801 132.2 5.2001 132.2H19.0001V136.8C19.0001 139.24 19.9694 141.58 21.6947 143.305C23.4201 145.031 25.7601 146 28.2001 146H120.2C122.64 146 124.98 145.031 126.705 143.305C128.431 141.58 129.4 139.24 129.4 136.8V32.909C129.398 31.9583 129.198 31.0184 128.814 30.149C128.792 30.0996 128.767 30.0519 128.738 30.0064C128.404 29.2711 127.943 28.6007 127.376 28.0261L109.376 10.024C108.802 9.45686 108.131 8.99588 107.396 8.6624C107.35 8.6335 107.303 8.60812 107.253 8.5865C106.383 8.20164 105.443 8.00191 104.491 8H28.2001C25.7601 8 23.4201 8.96928 21.6947 10.6946C19.9694 12.42 19.0001 14.76 19.0001 17.2L18.3901 82.8778C18.3901 83.4878 18.6324 84.0728 19.0638 84.5041C19.4951 84.9355 20.0801 85.1778 20.6901 85.1778C21.3001 85.1778 21.8851 84.9355 22.3164 84.5041C22.7478 84.0728 22.9901 83.4878 22.9901 82.8778L23.6001 17.2C23.6001 15.98 24.0847 14.81 24.9474 13.9473C25.8101 13.0846 26.9801 12.6 28.2001 12.6H104.1V22.076C104.103 25.0519 105.287 27.905 107.391 30.0092C109.495 32.1135 112.348 33.297 115.324 33.3H124.8V136.8C124.8 138.02 124.315 139.19 123.453 140.053C122.59 140.915 121.42 141.4 120.2 141.4H28.2001C26.9801 141.4 25.8101 140.915 24.9474 140.053C24.0847 139.19 23.6001 138.02 23.6001 136.8V132.2H78.8001C80.0201 132.2 81.1901 131.715 82.0528 130.853C82.9155 129.99 83.4001 128.82 83.4001 127.6V86.2C83.4001 84.98 82.9155 83.81 82.0528 82.9473C81.1901 82.0846 80.0201 81.6 78.8001 81.6H5.2001C3.9801 81.6 2.81007 82.0846 1.94741 82.9473C1.08474 83.81 0.600098 84.98 0.600098 86.2ZM108.7 22.076V15.8522L121.548 28.7H115.324C113.568 28.6982 111.884 27.9997 110.642 26.7579C109.4 25.516 108.702 23.8322 108.7 22.076ZM78.8001 127.6H5.2001V86.2H78.8001V127.6Z" fill="#1A1B25"/>
<path d="M35.1001 28.7H90.3001C90.9101 28.7 91.4951 28.4577 91.9265 28.0263C92.3578 27.595 92.6001 27.01 92.6001 26.4C92.6001 25.79 92.3578 25.205 91.9265 24.7736C91.4951 24.3423 90.9101 24.1 90.3001 24.1H35.1001C34.4901 24.1 33.9051 24.3423 33.4738 24.7736C33.0424 25.205 32.8001 25.79 32.8001 26.4C32.8001 27.01 33.0424 27.595 33.4738 28.0263C33.9051 28.4577 34.4901 28.7 35.1001 28.7ZM35.1001 40.2H90.3001C90.9101 40.2 91.4951 39.9577 91.9265 39.5263C92.3578 39.095 92.6001 38.51 92.6001 37.9C92.6001 37.29 92.3578 36.705 91.9265 36.2736C91.4951 35.8423 90.9101 35.6 90.3001 35.6H35.1001C34.4901 35.6 33.9051 35.8423 33.4738 36.2736C33.0424 36.705 32.8001 37.29 32.8001 37.9C32.8001 38.51 33.0424 39.095 33.4738 39.5263C33.9051 39.9577 34.4901 40.2 35.1001 40.2ZM35.1001 51.7H113.3C113.91 51.7 114.495 51.4577 114.926 51.0263C115.358 50.595 115.6 50.01 115.6 49.4C115.6 48.79 115.358 48.205 114.926 47.7736C114.495 47.3423 113.91 47.1 113.3 47.1H35.1001C34.4901 47.1 33.9051 47.3423 33.4738 47.7736C33.0424 48.205 32.8001 48.79 32.8001 49.4C32.8001 50.01 33.0424 50.595 33.4738 51.0263C33.9051 51.4577 34.4901 51.7 35.1001 51.7ZM35.1001 63.2H113.3C113.91 63.2 114.495 62.9577 114.926 62.5263C115.358 62.095 115.6 61.51 115.6 60.9C115.6 60.29 115.358 59.705 114.926 59.2736C114.495 58.8423 113.91 58.6 113.3 58.6H35.1001C34.4901 58.6 33.9051 58.8423 33.4738 59.2736C33.0424 59.705 32.8001 60.29 32.8001 60.9C32.8001 61.51 33.0424 62.095 33.4738 62.5263C33.9051 62.9577 34.4901 63.2 35.1001 63.2ZM35.1001 74.7H113.3C113.91 74.7 114.495 74.4577 114.926 74.0263C115.358 73.595 115.6 73.01 115.6 72.4C115.6 71.79 115.358 71.205 114.926 70.7736C114.495 70.3423 113.91 70.1 113.3 70.1H35.1001C34.4901 70.1 33.9051 70.3423 33.4738 70.7736C33.0424 71.205 32.8001 71.79 32.8001 72.4C32.8001 73.01 33.0424 73.595 33.4738 74.0263C33.9051 74.4577 34.4901 74.7 35.1001 74.7ZM113.3 81.6H92.6001C91.9901 81.6 91.4051 81.8423 90.9738 82.2736C90.5424 82.705 90.3001 83.29 90.3001 83.9C90.3001 84.51 90.5424 85.095 90.9738 85.5263C91.4051 85.9577 91.9901 86.2 92.6001 86.2H113.3C113.91 86.2 114.495 85.9577 114.926 85.5263C115.358 85.095 115.6 84.51 115.6 83.9C115.6 83.29 115.358 82.705 114.926 82.2736C114.495 81.8423 113.91 81.6 113.3 81.6ZM113.3 93.1H92.6001C91.9901 93.1 91.4051 93.3423 90.9738 93.7736C90.5424 94.205 90.3001 94.79 90.3001 95.4C90.3001 96.01 90.5424 96.595 90.9738 97.0263C91.4051 97.4577 91.9901 97.7 92.6001 97.7H113.3C113.91 97.7 114.495 97.4577 114.926 97.0263C115.358 96.595 115.6 96.01 115.6 95.4C115.6 94.79 115.358 94.205 114.926 93.7736C114.495 93.3423 113.91 93.1 113.3 93.1ZM113.3 104.6H92.6001C91.9901 104.6 91.4051 104.842 90.9738 105.274C90.5424 105.705 90.3001 106.29 90.3001 106.9C90.3001 107.51 90.5424 108.095 90.9738 108.526C91.4051 108.958 91.9901 109.2 92.6001 109.2H113.3C113.91 109.2 114.495 108.958 114.926 108.526C115.358 108.095 115.6 107.51 115.6 106.9C115.6 106.29 115.358 105.705 114.926 105.274C114.495 104.842 113.91 104.6 113.3 104.6ZM113.3 116.1H92.6001C91.9901 116.1 91.4051 116.342 90.9738 116.774C90.5424 117.205 90.3001 117.79 90.3001 118.4C90.3001 119.01 90.5424 119.595 90.9738 120.026C91.4051 120.458 91.9901 120.7 92.6001 120.7H113.3C113.91 120.7 114.495 120.458 114.926 120.026C115.358 119.595 115.6 119.01 115.6 118.4C115.6 117.79 115.358 117.205 114.926 116.774C114.495 116.342 113.91 116.1 113.3 116.1ZM113.3 127.6H92.6001C91.9901 127.6 91.4051 127.842 90.9738 128.274C90.5424 128.705 90.3001 129.29 90.3001 129.9C90.3001 130.51 90.5424 131.095 90.9738 131.526C91.4051 131.958 91.9901 132.2 92.6001 132.2H113.3C113.91 132.2 114.495 131.958 114.926 131.526C115.358 131.095 115.6 130.51 115.6 129.9C115.6 129.29 115.358 128.705 114.926 128.274C114.495 127.842 113.91 127.6 113.3 127.6ZM39.7001 120.7C42.1401 120.7 44.4801 119.731 46.2055 118.005C47.9308 116.28 48.9001 113.94 48.9001 111.5V102.3C48.9001 99.86 47.9308 97.5199 46.2055 95.7946C44.4801 94.0693 42.1401 93.1 39.7001 93.1C37.2601 93.1 34.9201 94.0693 33.1947 95.7946C31.4694 97.5199 30.5001 99.86 30.5001 102.3V111.5C30.5001 113.94 31.4694 116.28 33.1947 118.005C34.9201 119.731 37.2601 120.7 39.7001 120.7ZM35.1001 102.3C35.1001 101.08 35.5847 99.91 36.4474 99.0473C37.3101 98.1846 38.4801 97.7 39.7001 97.7C40.9201 97.7 42.0901 98.1846 42.9528 99.0473C43.8155 99.91 44.3001 101.08 44.3001 102.3V111.5C44.3001 112.72 43.8155 113.89 42.9528 114.753C42.0901 115.615 40.9201 116.1 39.7001 116.1C38.4801 116.1 37.3101 115.615 36.4474 114.753C35.5847 113.89 35.1001 112.72 35.1001 111.5V102.3ZM16.7001 120.7H25.9001C26.5101 120.7 27.0951 120.458 27.5264 120.026C27.9578 119.595 28.2001 119.01 28.2001 118.4C28.2001 117.79 27.9578 117.205 27.5264 116.774C27.0951 116.342 26.5101 116.1 25.9001 116.1H16.7001V95.4C16.7001 94.79 16.4578 94.205 16.0264 93.7736C15.5951 93.3423 15.0101 93.1 14.4001 93.1C13.7901 93.1 13.2051 93.3423 12.7738 93.7736C12.3424 94.205 12.1001 94.79 12.1001 95.4V116.1C12.1001 117.32 12.5847 118.49 13.4474 119.353C14.3101 120.215 15.4801 120.7 16.7001 120.7ZM62.7001 120.7C65.1401 120.7 67.4802 119.731 69.2055 118.005C70.9308 116.28 71.9001 113.94 71.9001 111.5V109.2C71.9001 108.59 71.6578 108.005 71.2265 107.574C70.7951 107.142 70.2101 106.9 69.6001 106.9H65.0001C64.3901 106.9 63.8051 107.142 63.3738 107.574C62.9424 108.005 62.7001 108.59 62.7001 109.2C62.7001 109.81 62.9424 110.395 63.3738 110.826C63.8051 111.258 64.3901 111.5 65.0001 111.5H67.3001C67.3001 112.72 66.8155 113.89 65.9528 114.753C65.0901 115.615 63.9201 116.1 62.7001 116.1C61.4801 116.1 60.3101 115.615 59.4474 114.753C58.5847 113.89 58.1001 112.72 58.1001 111.5V102.3C58.0978 101.213 58.4803 100.161 59.1799 99.329C59.8795 98.4973 60.851 97.9402 61.9221 97.7564C62.9932 97.5726 64.0949 97.774 65.0317 98.3249C65.9685 98.8757 66.6801 99.7405 67.0402 100.766C67.2612 101.317 67.6864 101.761 68.2271 102.005C68.7677 102.25 69.3819 102.276 69.9413 102.078C70.5008 101.88 70.9621 101.474 71.229 100.944C71.4959 100.414 71.5476 99.8013 71.3734 99.2341C70.6497 97.1884 69.2263 95.4643 67.3546 94.3665C65.4829 93.2687 63.2834 92.8679 61.1447 93.2347C59.006 93.6016 57.0659 94.7126 55.667 96.3714C54.2682 98.0302 53.5006 100.13 53.5001 102.3V111.5C53.5001 113.94 54.4694 116.28 56.1947 118.005C57.9201 119.731 60.2601 120.7 62.7001 120.7Z" fill="#1A1B25"/>
</svg>
