<svg width="150" height="150" viewBox="0 0 150 150" fill="none" xmlns="http://www.w3.org/2000/svg">
<path d="M75.2317 142.872C5.49907 121.92 17.9789 38.7642 17.9789 38.7642C21.0393 37.1489 24.1158 35.5643 27.208 34.0106H27.2113C52.3804 21.3573 75.232 12.2461 75.232 12.2461C75.232 12.2461 103.966 23.7045 132.484 38.7642C132.484 38.7642 144.964 121.92 75.2317 142.872Z" fill="#F0386B"/>
<path d="M75.2317 142.872C5.49907 121.92 17.9789 38.7643 17.9789 38.7643C21.0393 37.149 24.1158 35.5644 27.208 34.0106H27.2113C27.2111 34.0106 11.1727 111.388 75.2317 142.872Z" fill="#F0386B"/>
<path d="M75.2317 142.872V12.2461C75.2317 12.2461 103.966 23.7045 132.484 38.7642C132.484 38.7642 144.964 121.92 75.2317 142.872Z" fill="#F0386B"/>
<path d="M75.2318 129.449C19.8288 112.802 29.7452 46.7359 29.7452 46.7359C32.2366 45.4199 34.7313 44.1398 37.1933 42.9023H37.1966C57.1507 32.8811 75.2318 25.6688 75.2318 25.6688C75.2318 25.6688 98.0601 34.7733 120.718 46.7359C120.718 46.7359 130.635 112.802 75.2318 129.449Z" fill="#FF8E14"/>
<path d="M75.2318 129.449C19.8288 112.802 29.7452 46.736 29.7452 46.736C32.2366 45.4199 34.7313 44.1399 37.1933 42.9023H37.1966C37.1963 42.9023 27.2701 101.949 75.2318 129.449Z" fill="#FF8E14"/>
<path d="M75.2317 129.449V25.6688C75.2317 25.6688 98.06 34.7733 120.718 46.7359C120.718 46.7359 130.635 112.802 75.2317 129.449Z" fill="#FF8E14"/>
<path d="M101.066 68.5264L75.2318 94.3636L72.5865 97.0089C71.2048 98.3905 69.3324 99.1664 67.3779 99.1664C65.4234 99.1664 63.5507 98.3905 62.1693 97.0089L49.3982 84.2377C46.5206 81.3601 46.5206 76.6948 49.3982 73.8205C52.2758 70.9429 56.9378 70.9429 59.8154 73.8205L67.3779 81.383L75.2318 73.5292L90.6484 58.1095C93.526 55.235 98.188 55.235 101.066 58.1095C103.943 60.9871 103.943 65.6522 101.066 68.5264Z" fill="#F0386B"/>
<path d="M101.066 68.5265L75.2317 94.3637V73.529L90.6483 58.1093C93.5259 55.2347 98.1879 55.2347 101.066 58.1093C103.943 60.9871 103.943 65.6522 101.066 68.5265Z" fill="#F0386B"/>
<path d="M133.145 61.268C131.994 61.1879 130.987 62.0515 130.903 63.2052C128.848 91.4075 117.507 127.672 75.2317 140.683C47.4635 132.137 29.7323 112.598 22.522 82.5968C17.7505 62.7436 19.3992 44.5627 19.9181 40.1099C30.7191 34.4374 50.499 25.2332 63.391 19.4813C63.8984 19.255 64.2951 18.8364 64.4938 18.3176C64.6925 17.7988 64.677 17.2223 64.4507 16.7149C64.2243 16.2075 63.8057 15.8109 63.2869 15.6121C62.7681 15.4134 62.1916 15.4289 61.6842 15.6553C48.3241 21.616 28.1303 31.0347 17 36.912C16.7096 37.0651 16.4594 37.2845 16.2694 37.5523C16.0795 37.82 15.9552 38.1287 15.9066 38.4534C15.7767 39.3189 12.7913 59.9151 18.418 83.4481C21.7402 97.3431 27.3982 109.331 35.235 119.079C45.0562 131.295 58.3103 139.975 74.629 144.878C75.0221 144.997 75.4414 144.997 75.8345 144.878C96.4184 138.693 112.001 126.594 122.151 108.917C129.463 96.1807 133.814 80.9037 135.082 63.5097C135.122 62.9555 134.941 62.408 134.578 61.9877C134.214 61.5673 133.699 61.3084 133.145 61.268ZM133.464 36.912C105.172 21.9729 76.2959 10.4156 76.0076 10.3006C75.5093 10.102 74.9539 10.102 74.4556 10.3006C74.4064 10.3201 69.4584 12.2964 61.785 15.6125C61.2756 15.8333 60.8747 16.2473 60.6703 16.7635C60.466 17.2797 60.4749 17.8559 60.6952 18.3655C60.9155 18.8751 61.329 19.2765 61.845 19.4813C62.361 19.6862 62.9372 19.6779 63.4471 19.4581C69.3106 16.9244 73.5638 15.1813 75.2312 14.5054C79.9471 16.4197 105.345 26.8777 130.547 40.111C130.805 42.3004 130.996 55.8678 130.903 63.2052C130.9 63.4826 130.952 63.7578 131.055 64.0151C131.159 64.2723 131.313 64.5064 131.508 64.7037C131.702 64.901 131.935 65.0577 132.191 65.1646C132.446 65.2715 132.721 65.3266 132.998 65.3265C133.549 65.3263 134.078 65.1092 134.47 64.7221C134.862 64.335 135.085 63.8091 135.092 63.2583C135.218 53.3352 134.598 38.7274 134.557 38.4537C134.509 38.129 134.384 37.8202 134.194 37.5524C134.004 37.2846 133.754 37.0652 133.464 36.912Z" fill="#1A1B25"/>
<path d="M32.1456 84.4301C31.631 84.6394 31.2207 85.0446 31.0048 85.5565C30.789 86.0684 30.7853 86.6451 30.9946 87.1596C38.656 105.991 54.9611 125.546 74.6289 131.455C75.022 131.573 75.4412 131.573 75.8343 131.455C88.8845 127.534 99.4858 120.59 107.344 110.815C113.611 103.021 118.134 93.4394 120.788 82.3376C125.278 63.5607 122.894 47.1169 122.791 46.4259C122.742 46.1012 122.617 45.7926 122.428 45.5248C122.238 45.2571 121.987 45.0377 121.697 44.8844C99.1998 33.0054 76.2368 23.8146 76.0075 23.7227C75.5092 23.5241 74.9537 23.5241 74.4554 23.7227C74.2261 23.8143 51.2635 33.0051 28.7658 44.8844C28.4755 45.0376 28.2252 45.257 28.0353 45.5247C27.8453 45.7925 27.721 46.1012 27.6724 46.4259C27.552 47.2269 24.7987 66.2775 30.8572 86.7689C31.0166 87.2995 31.3797 87.7454 31.867 88.0089C32.3543 88.2725 32.9262 88.3322 33.4575 88.1751C33.9887 88.018 34.4361 87.6568 34.7017 87.1705C34.9673 86.6843 35.0295 86.1127 34.8746 85.5808C29.864 68.6345 31.2164 52.2802 31.687 48.081C51.3487 37.7721 71.1176 29.6016 75.231 27.928C79.3448 29.6016 99.1148 37.7727 118.776 48.0815C119.211 51.9286 120.392 65.9758 116.713 81.3631C111.05 105.049 97.0941 120.487 75.231 127.259C57.1572 121.658 41.9559 102.986 34.8746 85.5808C34.6652 85.0664 34.2601 84.6562 33.7483 84.4404C33.2366 84.2246 32.6601 84.2209 32.1456 84.4301Z" fill="#1A1B25"/>
<path d="M67.3775 101.26C69.9049 101.26 72.2809 100.276 74.0672 98.4888L102.547 70.0086C106.235 66.3203 106.235 60.3182 102.547 56.6289C98.8576 52.9403 92.8561 52.9403 89.1669 56.6289L67.3775 78.4191L61.2967 72.3383C57.6074 68.6496 51.6059 68.6493 47.9167 72.3385C44.2283 76.0272 44.2283 82.0293 47.9167 85.7183L60.6878 98.4888C62.4739 100.276 64.8499 101.26 67.3775 101.26ZM50.8789 75.3008C51.9064 74.273 53.2566 73.7591 54.6064 73.7591C55.9562 73.7591 57.3064 74.273 58.3342 75.3008L65.8961 82.8627C66.2891 83.2555 66.8219 83.4761 67.3774 83.4761C67.9329 83.4761 68.4657 83.2555 68.8586 82.8627L92.1291 59.5917C94.1842 57.5358 97.5287 57.5364 99.5838 59.5914C101.639 61.6468 101.639 64.9914 99.5838 67.0464L71.1045 95.5266C70.1093 96.522 68.7855 97.0703 67.3773 97.0703C65.969 97.0703 64.6452 96.522 63.6498 95.5263L50.8786 82.7558C48.8238 80.7004 48.8238 77.3558 50.8789 75.3008Z" fill="#1A1B25"/>
</svg>
