<svg width="150" height="150" viewBox="0 0 150 150" fill="none" xmlns="http://www.w3.org/2000/svg">
<path d="M131.185 15.8848H22.8154C16.335 15.8848 11.082 21.1377 11.082 27.6182V99.3809L16.1797 101.578L22.0684 99.3809L142.918 68.751V27.6182C142.918 21.1377 137.665 15.8848 131.185 15.8848Z" fill="#F0386B"/>
<path d="M130.364 26.8711H23.6357C22.7715 26.8711 22.0684 27.5742 22.0684 28.4385V99.3809L61.4923 102.677L96.7754 99.3809L131.932 68.6191V28.4385C131.932 27.5742 131.229 26.8711 130.364 26.8711Z" fill="#FF8E14"/>
<path d="M87.9863 99.3809L77 102.35L66.0137 99.3809H4.49023V111.686C4.49023 117.026 8.81738 121.354 14.1582 121.354H96.7754L98.8358 110.367L96.7754 99.3809H87.9863Z" fill="#F0386B"/>
<path d="M87.9863 99.3809V103.38C87.9863 107.238 84.8574 110.367 80.999 110.367H73.001C69.1426 110.367 66.0137 107.238 66.0137 103.38V99.3809H87.9863Z" fill="#F0386B"/>
<path d="M48.4782 123.551H14.1582C7.61562 123.551 2.29297 118.228 2.29297 111.686V99.3809C2.29297 98.1671 3.27646 97.1836 4.49023 97.1836H91.3027C92.5165 97.1836 93.5 98.1671 93.5 99.3809C93.5 100.595 92.5165 101.578 91.3027 101.578H6.6875V111.686C6.6875 115.805 10.0388 119.156 14.1582 119.156H48.4782C49.692 119.156 50.6755 120.14 50.6755 121.354C50.6755 122.567 49.692 123.551 48.4782 123.551ZM91.3027 123.551H48.4268C47.213 123.551 46.2295 122.567 46.2295 121.354C46.2295 120.14 47.213 119.156 48.4268 119.156H91.3027C92.5165 119.156 93.5 120.14 93.5 121.354C93.5 122.567 92.5165 123.551 91.3027 123.551Z" fill="#1A1B25"/>
<path d="M11.082 101.578C10.7935 101.578 10.5077 101.521 10.2411 101.411C9.97453 101.301 9.73229 101.139 9.52824 100.935C9.3242 100.731 9.16235 100.488 9.05194 100.222C8.94154 99.9552 8.88473 99.6694 8.88477 99.3809V27.6182C8.88477 19.9368 15.1341 13.6875 22.8154 13.6875H131.185C138.866 13.6875 145.115 19.9368 145.115 27.6182V70.8027C145.115 72.0165 144.132 73 142.918 73C141.704 73 140.721 72.0165 140.721 70.8027V27.6182C140.721 22.36 136.443 18.082 131.185 18.082H22.8154C17.5572 18.082 13.2793 22.36 13.2793 27.6182V99.3809C13.2793 100.595 12.2958 101.578 11.082 101.578ZM80.999 112.564H73.001C67.9367 112.564 63.8164 108.444 63.8164 103.38V99.3809C63.8164 98.1671 64.7999 97.1836 66.0137 97.1836H87.9863C89.2001 97.1836 90.1836 98.1671 90.1836 99.3809V103.38C90.1836 108.444 86.0636 112.564 80.999 112.564ZM68.2109 101.578V103.38C68.2109 106.021 70.3596 108.17 73.001 108.17H80.9993C83.6407 108.17 85.7894 106.021 85.7894 103.38V101.578H68.2109Z" fill="#1A1B25"/>
<path d="M131.932 70.8164C131.643 70.8164 131.357 70.7596 131.091 70.6492C130.824 70.5388 130.582 70.377 130.378 70.1729C130.174 69.9689 130.012 69.7266 129.902 69.46C129.791 69.1934 129.734 68.9077 129.734 68.6191V29.0684H123.143C121.929 29.0684 120.945 28.0849 120.945 26.8711C120.945 25.6573 121.929 24.6738 123.143 24.6738H130.364C132.44 24.6738 134.129 26.3628 134.129 28.4385V68.6191C134.129 69.8329 133.145 70.8164 131.932 70.8164ZM22.0684 101.578C21.7798 101.578 21.4941 101.521 21.2275 101.411C20.9609 101.301 20.7186 101.139 20.5146 100.935C20.3105 100.731 20.1487 100.488 20.0383 100.222C19.9279 99.9552 19.8711 99.6694 19.8711 99.3809V28.4385C19.8711 26.3628 21.5601 24.6738 23.6357 24.6738H122.982C124.195 24.6738 125.179 25.6573 125.179 26.8711C125.179 28.0849 124.195 29.0684 122.982 29.0684H24.2656V99.3809C24.2656 100.595 23.2821 101.578 22.0684 101.578Z" fill="#1A1B25"/>
<path d="M136.482 52.6191H126.932L118.406 55.4609L109.354 52.6191H99.8027C95.3701 52.6191 91.7754 56.2139 91.7754 60.6465V120.734L118.143 123.342L144.51 120.734V60.6465C144.51 56.1772 140.878 52.6191 136.482 52.6191Z" fill="#FF8E14"/>
<path d="M144.51 120.734V128.088C144.51 132.521 140.915 136.115 136.482 136.115H99.8027C95.3701 136.115 91.7754 132.521 91.7754 128.088V120.734H144.51ZM126.932 55.1592C126.932 58.6104 124.134 61.4082 120.683 61.4082H115.603C112.151 61.4082 109.354 58.6104 109.354 55.1592V52.6191H126.932V55.1592Z" fill="#F0386B"/>
<path d="M136.482 138.312H99.8027C94.1648 138.312 89.5781 133.726 89.5781 128.088V60.6465C89.5781 55.0086 94.1648 50.4219 99.8027 50.4219H136.482C142.12 50.4219 146.707 55.0086 146.707 60.6465V128.088C146.707 133.726 142.12 138.312 136.482 138.312ZM99.8027 54.8164C96.588 54.8164 93.9727 57.432 93.9727 60.6465V128.088C93.9727 131.303 96.5883 133.918 99.8027 133.918H136.482C139.697 133.918 142.312 131.302 142.312 128.088V60.6465C142.312 57.4317 139.697 54.8164 136.482 54.8164H99.8027Z" fill="#1A1B25"/>
<path d="M123.976 76.8751L125.629 73.8617C125.739 73.6632 125.701 73.5102 125.514 73.4025C125.311 73.3116 125.155 73.3571 125.048 73.5412L123.374 76.5786C121.899 75.9326 120.306 75.6018 118.696 75.6076C117.05 75.6076 115.491 75.9304 114.018 76.5738L112.344 73.5365C112.234 73.3571 112.081 73.314 111.877 73.4049C111.691 73.5149 111.652 73.668 111.76 73.8665L113.413 76.8775C111.788 77.6769 110.407 78.8955 109.412 80.4075C108.432 81.8737 107.913 83.5994 107.922 85.3628H129.446C129.446 83.5691 128.948 81.919 127.956 80.4075C126.965 78.8996 125.592 77.6815 123.976 76.8775V76.8751ZM114.427 81.2565C114.344 81.3412 114.244 81.4082 114.134 81.4535C114.025 81.4987 113.907 81.5212 113.788 81.5196C113.671 81.5223 113.554 81.5003 113.446 81.455C113.337 81.4096 113.24 81.342 113.159 81.2565C113.076 81.1737 113.011 81.0752 112.967 80.9667C112.923 80.8583 112.902 80.7421 112.903 80.6251C112.902 80.5078 112.924 80.3913 112.968 80.2825C113.012 80.1737 113.077 80.0747 113.159 79.9913C113.24 79.9059 113.337 79.8384 113.446 79.7931C113.554 79.7478 113.671 79.7257 113.788 79.7283C114.035 79.7283 114.25 79.8168 114.427 79.9913C114.513 80.0729 114.581 80.1713 114.627 80.2803C114.673 80.3893 114.696 80.5067 114.695 80.6251C114.696 80.7431 114.672 80.86 114.626 80.9686C114.58 81.0772 114.512 81.1752 114.427 81.2565ZM124.235 81.2565C124.154 81.3416 124.057 81.409 123.949 81.4543C123.841 81.4996 123.725 81.5218 123.608 81.5196C123.489 81.5216 123.371 81.4994 123.26 81.4541C123.15 81.4089 123.05 81.3416 122.967 81.2565C122.881 81.1754 122.813 81.0774 122.767 80.9688C122.721 80.8601 122.698 80.7431 122.699 80.6251C122.699 80.3788 122.788 80.1683 122.967 79.9913C123.05 79.9063 123.15 79.8391 123.26 79.7939C123.371 79.7487 123.489 79.7263 123.608 79.7283C123.857 79.7283 124.062 79.8168 124.235 79.9913C124.317 80.0745 124.383 80.1734 124.427 80.2823C124.471 80.3911 124.492 80.5077 124.491 80.6251C124.491 80.869 124.407 81.0795 124.235 81.2565ZM107.922 101.506C107.922 102.209 108.17 102.807 108.665 103.3C109.163 103.788 109.766 104.034 110.483 104.034H112.296L112.32 109.252C112.32 109.912 112.552 110.472 113.018 110.934C113.236 111.156 113.497 111.331 113.784 111.45C114.072 111.568 114.381 111.627 114.692 111.622C115.007 111.628 115.32 111.571 115.612 111.452C115.904 111.334 116.169 111.157 116.39 110.934C116.616 110.717 116.795 110.455 116.915 110.166C117.035 109.877 117.094 109.566 117.089 109.252V104.034H120.3V109.252C120.3 109.912 120.532 110.472 120.999 110.934C121.22 111.157 121.485 111.334 121.777 111.452C122.069 111.571 122.382 111.629 122.697 111.622C123.012 111.628 123.325 111.571 123.616 111.452C123.908 111.334 124.173 111.157 124.395 110.934C124.621 110.717 124.8 110.455 124.92 110.166C125.04 109.877 125.099 109.566 125.093 109.252V104.034H126.911C127.607 104.034 128.202 103.788 128.702 103.297C129.197 102.807 129.446 102.209 129.446 101.504V86.1879H107.922V101.504V101.506ZM133.021 85.7527C132.711 85.7474 132.404 85.8034 132.115 85.9175C131.827 86.0316 131.565 86.2015 131.342 86.4175C131.117 86.6257 130.937 86.8793 130.817 87.1616C130.696 87.444 130.636 87.7487 130.642 88.0558V97.7727C130.642 98.4209 130.876 98.9709 131.342 99.4229C131.562 99.643 131.824 99.8165 132.113 99.9331C132.401 100.05 132.71 100.107 133.021 100.102C133.691 100.102 134.258 99.8749 134.724 99.4229C134.95 99.2121 135.129 98.9563 135.249 98.6721C135.37 98.3879 135.43 98.0815 135.425 97.7727V88.0558C135.43 87.7487 135.371 87.444 135.25 87.1616C135.129 86.8793 134.95 86.6257 134.724 86.4175C134.498 86.1999 134.231 86.0292 133.939 85.9151C133.647 85.801 133.335 85.7458 133.021 85.7527ZM102.643 86.4295C102.868 86.2086 103.134 86.035 103.426 85.9187C103.719 85.8025 104.032 85.746 104.346 85.7527C104.999 85.7527 105.559 85.9775 106.025 86.4295C106.249 86.6366 106.427 86.8883 106.548 87.1684C106.668 87.4485 106.729 87.7508 106.726 88.0558V97.7727C106.731 98.0805 106.673 98.3859 106.554 98.6699C106.436 98.9539 106.26 99.2103 106.037 99.4229C105.816 99.6444 105.552 99.8188 105.261 99.9355C104.971 100.052 104.659 100.109 104.346 100.102C104.031 100.108 103.719 100.051 103.426 99.9348C103.134 99.8181 102.868 99.6441 102.643 99.4229C102.418 99.2121 102.239 98.9563 102.118 98.6721C101.997 98.3879 101.938 98.0815 101.943 97.7727V88.0558C101.943 87.4244 102.177 86.8815 102.643 86.4295Z" fill="#1A1B25"/>
<path d="M84.1551 42.0191C84.0738 41.9283 81.1441 42.055 78.5947 44.8221C76.0453 47.5868 76.4375 50.758 76.4949 50.8393C76.5523 50.9206 80.1301 51.0474 82.414 47.8307C84.698 44.614 84.2364 42.1124 84.1551 42.0191ZM92.0808 70.0796C91.966 69.85 86.5204 67.1284 87.0274 61.8956C87.5344 56.6604 91.0333 55.2255 91.0883 55.07C91.1433 54.9146 89.6605 53.1807 88.0893 52.303C86.9356 51.6841 85.6588 51.3296 84.3512 51.265C84.0929 51.2578 83.1961 51.0378 81.3522 51.5424C80.1373 51.8749 77.3989 52.9511 76.6456 52.9941C75.8898 53.0372 73.6417 51.7457 71.2238 51.4037C69.6765 51.1048 68.0359 51.717 66.8616 52.1882C65.6897 52.6569 63.4608 53.9914 61.9014 57.5381C60.3421 61.0825 61.1577 66.6979 61.7412 68.4437C62.3248 70.1872 63.236 73.0451 64.7857 75.1306C66.1632 77.4839 67.9904 79.1174 68.7533 79.6722C69.5162 80.2271 71.6687 80.5954 73.161 79.8325C74.3616 79.0958 76.5284 78.6725 77.3846 78.7036C78.2383 78.7347 79.922 79.0719 81.6464 79.9927C83.0119 80.4638 84.3034 80.2677 85.5972 79.7416C86.8911 79.213 88.7637 77.2089 90.9496 73.1456C91.7795 71.2562 92.1574 70.235 92.0808 70.0796Z" fill="#1A1B25"/>
</svg>
