<svg width="123" height="123" viewBox="0 0 123 123" fill="none" xmlns="http://www.w3.org/2000/svg">
<rect x="25.8818" width="100" height="100" rx="30" transform="rotate(15 25.8818 0)" fill="#1A1B25"/>
<path d="M40.4082 49.0581L42.3325 49.5737L38.6575 63.2891L36.7332 62.7735L40.4082 49.0581ZM39.7137 55.4233L46.3639 57.2052L45.8735 59.0352L39.2233 57.2533L39.7137 55.4233ZM41.3515 49.3108L49.0393 51.3708L48.549 53.2007L40.8612 51.1408L41.3515 49.3108ZM50.4276 58.2638L55.1063 59.5174C55.471 59.6152 55.8185 59.6139 56.1486 59.5136C56.4788 59.4134 56.7623 59.2231 56.9992 58.9429C57.244 58.658 57.4229 58.3049 57.5358 57.8835C57.6487 57.4622 57.6695 57.0701 57.5982 56.7073C57.5349 56.3398 57.3853 56.0301 57.1495 55.7782C56.92 55.528 56.6197 55.3532 56.2487 55.2538L51.57 54.0001L52.0604 52.1701L56.6636 53.4036C57.456 53.6159 58.107 53.9656 58.6168 54.4527C59.1329 54.9414 59.4736 55.5315 59.6388 56.2228C59.812 56.9095 59.7933 57.6459 59.5827 58.432C59.3721 59.2181 59.0192 59.8683 58.5242 60.3827C58.0308 60.8908 57.4385 61.2275 56.7471 61.3927C56.0621 61.5597 55.3265 61.5378 54.5405 61.3272L49.9372 60.0938L50.4276 58.2638ZM51.2208 51.9452L53.1451 52.4608L49.4676 66.1856L47.5433 65.67L51.2208 51.9452ZM53.7864 60.6702L55.8175 60.7494L57.5421 68.3492L55.2594 67.7375L53.7864 60.6702ZM63.8206 55.3314L65.7449 55.847L62.0699 69.5624L60.1456 69.0468L63.8206 55.3314ZM61.5698 67.467L69.4462 69.5775L68.9559 71.4075L61.0794 69.297L61.5698 67.467ZM63.1495 61.5715L69.9883 63.404L69.498 65.2339L62.6591 63.4015L63.1495 61.5715ZM64.7545 55.5816L72.6309 57.6921L72.1406 59.5221L64.2641 57.4116L64.7545 55.5816ZM75.3664 58.4251L77.2908 58.9407L73.6157 72.6561L71.6914 72.1405L75.3664 58.4251ZM73.1156 70.5607L80.9921 72.6712L80.5017 74.5012L72.6253 72.3907L73.1156 70.5607ZM74.6953 64.6652L81.5342 66.4977L81.0438 68.3276L74.205 66.4952L74.6953 64.6652ZM76.3003 58.6753L84.1767 60.7858L83.6864 62.6158L75.81 60.5053L76.3003 58.6753Z" fill="white"/>
</svg>
