<svg width="40" height="40" viewBox="0 0 40 40" fill="none" xmlns="http://www.w3.org/2000/svg">
<circle cx="20" cy="20" r="20" fill="white"/>
<path fill-rule="evenodd" clip-rule="evenodd" d="M28.5302 19.47C28.6706 19.6106 28.7495 19.8012 28.7495 20C28.7495 20.1987 28.6706 20.3894 28.5302 20.53L22.5302 26.53C22.4615 26.6037 22.3787 26.6628 22.2867 26.7038C22.1947 26.7448 22.0954 26.7668 21.9947 26.7686C21.894 26.7704 21.794 26.7518 21.7006 26.7141C21.6072 26.6764 21.5224 26.6202 21.4511 26.549C21.3799 26.4778 21.3238 26.393 21.286 26.2996C21.2483 26.2062 21.2298 26.1062 21.2316 26.0055C21.2334 25.9048 21.2554 25.8054 21.2964 25.7135C21.3374 25.6215 21.3965 25.5387 21.4702 25.47L26.1902 20.75L12.0002 20.75C11.8013 20.75 11.6105 20.671 11.4698 20.5303C11.3292 20.3897 11.2502 20.1989 11.2502 20C11.2502 19.8011 11.3292 19.6103 11.4698 19.4697C11.6105 19.329 11.8013 19.25 12.0002 19.25L26.1902 19.25L21.4702 14.53C21.3965 14.4613 21.3374 14.3785 21.2964 14.2865C21.2554 14.1945 21.2334 14.0952 21.2316 13.9945C21.2298 13.8938 21.2483 13.7938 21.286 13.7004C21.3238 13.607 21.3799 13.5222 21.4511 13.451C21.5224 13.3797 21.6072 13.3236 21.7006 13.2859C21.794 13.2481 21.894 13.2296 21.9947 13.2314C22.0954 13.2332 22.1947 13.2552 22.2867 13.2962C22.3787 13.3372 22.4615 13.3963 22.5302 13.47L28.5302 19.47Z" fill="#FF8E14"/>
</svg>
